<?xml version="1.0" encoding="UTF-8" standalone="no"?>
<svg
   xmlns:mapsvg="http://mapsvg.com"
   xmlns:dc="http://purl.org/dc/elements/1.1/"
   xmlns:cc="http://creativecommons.org/ns#"
   xmlns:rdf="http://www.w3.org/1999/02/22-rdf-syntax-ns#"
   xmlns:svg="http://www.w3.org/2000/svg"
   xmlns="http://www.w3.org/2000/svg"
   xmlns:sodipodi="http://sodipodi.sourceforge.net/DTD/sodipodi-0.dtd"
   xmlns:inkscape="http://www.inkscape.org/namespaces/inkscape"
   width="752.16895"
   height="611.36615"
   mapsvg:geoViewBox="23.179154 56.172064 32.779653 51.262469"
   version="1.1"
   id="svg13"
   sodipodi:docname="belgium_outline.svg"
   inkscape:version="1.0.1 (3bc2e813f5, 2020-09-07)">
  <metadata
     id="metadata19">
    <rdf:RDF>
      <cc:Work
         rdf:about="">
        <dc:format>image/svg+xml</dc:format>
        <dc:type
           rdf:resource="http://purl.org/dc/dcmitype/StillImage" />
        <dc:title></dc:title>
      </cc:Work>
    </rdf:RDF>
  </metadata>
  <defs
     id="defs17" />
  <sodipodi:namedview
     pagecolor="#ffffff"
     bordercolor="#666666"
     borderopacity="1"
     objecttolerance="10"
     gridtolerance="10"
     guidetolerance="10"
     inkscape:pageopacity="0"
     inkscape:pageshadow="2"
     inkscape:window-width="1920"
     inkscape:window-height="1017"
     id="namedview15"
     showgrid="false"
     inkscape:zoom="0.49155548"
     inkscape:cx="521.50424"
     inkscape:cy="424.26932"
     inkscape:window-x="-8"
     inkscape:window-y="-8"
     inkscape:window-maximized="1"
     inkscape:current-layer="svg13" />
  <path
     id="BE-VAN"
     d="M 436.0332 0.25195312 L 429.83398 0.421875 L 418.26367 15.222656 L 413.22461 17.521484 L 413.57422 23.152344 L 407.91406 24.300781 L 395.42383 21.28125 L 387.66406 24.171875 L 386.61328 16.082031 L 389.96289 8.7617188 L 388.1543 5.9316406 L 375.49414 7.2109375 L 357.05469 16.960938 L 360.6543 18.701172 L 358.20312 25.050781 L 367.42383 42.5625 L 358.04297 45.332031 L 350.12305 44.3125 L 348.62305 38.472656 L 325.5332 39.460938 L 329.60742 46.011719 L 329.57422 45.992188 L 316.1543 64.091797 L 295.41406 79.662109 L 286.43359 79.28125 L 275.41406 88.242188 L 271.00391 89.511719 L 269.48438 87.091797 L 261.55469 93.191406 L 261.64453 86.162109 L 256.00391 89.851562 L 242.93359 88.832031 L 243.80469 76.222656 L 240.2832 73.800781 L 224.31445 69.892578 L 204.01367 60.550781 L 202.25391 66.482422 L 198.4043 64.03125 L 193.60352 67.380859 L 189.2832 66.421875 L 191.54297 79.191406 L 172.34375 79.5625 L 163.19336 70.291016 L 160.47461 63.101562 L 162.20312 61.892578 L 158.88477 57.851562 L 163.7832 51.921875 L 160.68359 41.332031 L 133.26367 49.5625 L 132.2832 43.541016 L 132.04492 43.482422 L 129.72461 45.652344 L 131.21289 44.691406 L 132.61328 49.412109 L 129.35352 48.572266 L 130.6543 50.681641 L 128.74414 49.412109 L 127.4043 53.232422 L 127.09375 49.841797 L 125.13477 51.460938 L 128.5332 47.171875 L 125.77344 48.941406 L 122.74609 45.166016 L 121.80469 46.210938 L 124.54297 52.761719 L 103.61328 61.791016 L 43.154297 103.8125 L 0.28320312 127.80078 L 6.1230469 154.52148 L 12.613281 158.3125 L 17.423828 171.53125 L 9.3339844 180.0625 L 12.503906 182.00195 L 12.943359 186.70117 L 13.59375 196.85156 L 11.134766 201.61133 L 14.314453 202.07227 L 18.083984 213.04102 L 24.564453 210.0918 L 26.353516 212.67188 L 35.123047 213.68164 L 35.353516 219.0918 L 46.234375 231.88086 L 48.023438 239.39258 L 53.503906 242.73242 L 59.144531 240.58203 L 62.203125 245.33203 L 71.414062 249.60156 L 78.453125 237.90234 L 77.224609 233.85156 L 84.484375 231.80078 L 92.693359 224.99219 L 94.720703 222.85547 L 94.744141 222.86133 L 92.703125 225.01172 L 95.484375 226.33203 L 100.56445 222.95117 L 105.11328 225.38086 L 110.63477 218.72266 L 113.34375 221.02148 L 118.12305 219.92188 L 123.41406 230.3125 L 131.66406 227.19141 L 139.91406 231.57227 L 148.41406 230.50195 L 152.05469 240.86133 L 158.91406 244.54102 L 167.94336 233.26172 L 173.35352 232.46094 L 173.35352 231.27148 L 178.35352 226.79102 L 173.38477 231.33203 L 173.38477 232.53125 L 167.97461 233.33203 L 158.94336 244.61133 L 152.07422 240.93164 L 148.43359 230.57227 L 139.93359 231.64258 L 131.68359 227.25195 L 123.43359 230.38086 L 127.63477 236.97266 L 126.42383 240.28125 L 139.59375 247.11133 L 138.07422 250.91211 L 140.48438 254.83203 L 135.42383 260.46094 L 143.14453 279.63086 L 143.12305 296.89258 L 145.57422 301.25195 L 159.17383 307.47266 L 162.01367 311.37109 L 173.88477 305.51172 L 175.88477 306.70117 L 181.21289 298.55078 L 189.79297 301.48242 L 185.35352 309.08203 L 186.24414 312.5625 L 199.49414 308.53125 L 202.33398 311.55078 L 207.25391 309.87109 L 217.38477 321.88086 L 220.30469 338.14258 L 217.07422 348.27148 L 220.05469 358.88086 L 226.76367 367.87109 L 228.6543 367.38086 L 226.94336 363.16211 L 230.97461 365.38086 L 231.79297 356.26172 L 234.47461 353.86133 L 246.18359 352.92188 L 247.48438 356.14258 L 249.7832 353.43164 L 254.45312 353.58203 L 264.55469 361.21094 L 277.31445 354.68164 L 277.47461 356.87109 L 278.48438 354.80078 L 281.09375 356.44141 L 288.4043 351.48242 L 298.48438 366.10156 L 302.33398 365.19141 L 306.38477 368.35156 L 310.41406 382.16211 L 316.17383 382.07227 L 312.79297 377.00195 L 315.22461 372.69141 L 318.25391 376.88086 L 324.20312 377.88086 L 326.67383 383.74219 L 317.27344 394.8418 L 312.97461 395.8418 L 313.81445 410.93164 L 308.64453 419.89258 L 313.76367 422.07227 L 313.5332 419.95117 L 322.61328 420.10156 L 322.07422 428.45117 L 328.49414 439.37109 L 321.29297 445.38086 L 314.85352 445.74219 L 310.18359 454.41211 L 315.24414 459.99219 L 311.33398 466.51172 L 321.00391 469.10156 L 321.56445 473.35156 L 343.76367 469.40234 L 351.89453 474.25195 L 367.82422 477.69141 L 367.8418 477.6543 L 385.48438 474.98242 L 388.71289 469.37109 L 399.74414 464.0918 L 418.14453 461.44141 L 416.45312 452.38086 L 419.46289 444.74219 L 415.67383 440.0918 L 418.31445 434.50195 L 429.34375 426.45117 L 431.79297 418.92188 L 444.20312 409.29102 L 445.91406 413.5918 L 453.93359 413.98242 L 457.72461 418.89258 L 452.16406 424.03125 L 453.00391 433.62109 L 448.93359 429.51172 L 446.4043 439.91211 L 442.9043 440.57227 L 447.00391 448.70117 L 442.82422 452.44141 L 442.5332 461.92188 L 437.61328 465.48242 L 436.97461 469.61133 L 437.24414 472.8125 L 448.21289 475.80078 L 456.17383 487.46094 L 450.82422 500.25195 L 448.17383 500.3418 L 453.56445 514.51172 L 449.0332 522.48242 L 464.12305 524.28125 L 471.86328 519.95117 L 477.06445 520.40234 L 479.5332 525.75195 L 490.44336 531.97266 L 496.2832 531.61133 L 502.74414 546.44141 L 509.52344 545.75195 L 510.32422 552.46094 L 517.95312 551.74219 L 525.24414 554.86133 L 529.87305 551.44141 L 531.68359 552.70117 L 542.48438 564.24219 L 537.57422 571.58203 L 539.07422 577.0625 L 543.9043 575.33203 L 545.88477 571.16211 L 561.54297 581.61133 L 563.29297 589.27148 L 566.58398 590.08203 L 564.05469 594.5918 L 568.64453 598.45117 L 568.89453 602.07227 L 565.59375 604.79102 L 569.94336 610.94141 L 572.41406 607.65234 L 583.33398 605.29102 L 586.26367 601.35156 L 593.1543 603.53125 L 596.92383 608.13086 L 597.76367 601.77148 L 604.39453 594.95117 L 623.11328 598.69141 L 625.71289 591.87109 L 636.80469 596.8418 L 641.57422 594.53125 L 647.29297 588.3125 L 647.27344 584.22266 L 643.75391 584.40234 L 642.99414 581.79102 L 648.08398 578.05078 L 650.48438 570.00195 L 654.19336 569.37109 L 655.07422 561.40234 L 646.24414 557.5918 L 650.24414 547.85156 L 646.24414 542.8418 L 638.79297 543.80078 L 639.56445 536.38086 L 631.45312 521.94141 L 624.86328 523.23242 L 622.17383 509.64258 L 625.62305 506.30078 L 623.42383 504.44141 L 626.06445 503.38086 L 625.0332 498.72266 L 628.81445 500.25195 L 630.66406 496.76172 L 621.18359 490.62109 L 626.51367 485.44141 L 629.04297 472.03125 L 635.05469 471.27148 L 640.93359 465.96094 L 637.54297 456.37109 L 645.46289 451.45117 L 647.36328 446.04102 L 644.41406 442.32227 L 650.85352 436.64258 L 652.71289 426.33203 L 665.11328 420.40234 L 666.21289 407.90234 L 677.49609 404.7832 L 678.77344 410.67188 L 684.57422 413.91211 L 688.24414 413.01172 L 688.5332 408.46094 L 694.7832 409.95117 L 697.07422 415.22266 L 694.62305 419.15234 L 699.84375 420.97266 L 702.64453 417.24219 L 698.57422 413.70117 L 701.10352 407.13086 L 709.80469 404.92188 L 705.13477 393.37109 L 706.98438 389.01172 L 710.98438 388.3125 L 714.52344 382.39258 L 727.11328 379.39258 L 732.4043 363.72266 L 737.2832 362.57227 L 742.9043 368.25195 L 743.14453 365.12109 L 751.31445 362.66211 L 751.89453 358.77148 L 739.05469 345.15234 L 745.9043 328.01172 L 745.04297 322.40234 L 738.94336 320.00195 L 740.92383 311.92188 L 725.30469 306.89258 L 716.72461 309.91211 L 713.20312 302.10156 L 709.43359 300.36133 L 710.9043 297.21094 L 707.46289 295.63086 L 707.02344 290.96094 L 716.59375 281.00195 L 720.13477 281.33203 L 725.07422 269.90234 L 711.26367 267.91211 L 707.25391 269.93164 L 708.57422 268.13086 L 705.67383 264.85156 L 708.42383 262.3125 L 695.50391 240.54102 L 681.67383 238.70117 L 680.48438 241.62109 L 680.87305 233.77148 L 676.67383 230.40234 L 668.95312 230.92188 L 665.19336 228.07227 L 656.54297 231.68164 L 651.71289 230.30078 L 650.37305 226.04102 L 643.48438 230.58203 L 642.51367 227.48242 L 635.43359 230.0918 L 630.57422 226.32227 L 627.5332 222.04102 L 621.95312 228.79102 L 610.88867 229.53125 L 614.46289 222.11133 L 612.9043 213.0918 L 611.8418 213.0625 L 611.84375 213.05078 L 604.29297 208.35156 L 603.43359 194.80078 L 609.97461 191.88086 L 614.09375 182.87109 L 618.60352 183.21094 L 625.31445 170.65234 L 624.08398 167.66211 L 619.68359 169.14258 L 618.18359 166.86133 L 626.99414 155.92188 L 628.92383 148.0918 L 625.4043 144.79102 L 628.45312 135.99219 L 633.5332 136.36133 L 632.69336 127.07227 L 639.71289 125.0625 L 635.37305 118.88086 L 644.18359 110.69141 L 638.29297 103.33203 L 629.19336 108.3125 L 626.91406 98.412109 L 606.13477 97.982422 L 604.87305 94.050781 L 587.27344 86.591797 L 586.49414 73.441406 L 582.17383 69.380859 L 578.49414 63.960938 L 572.56445 62.412109 L 559.22461 74.232422 L 545.31445 70.511719 L 543.38477 74.291016 L 524.32227 74.789062 L 522.08398 72.771484 L 524.94336 61.322266 L 517.10352 56.142578 L 509.84375 59.521484 L 504.37305 57.871094 L 503.84375 47.681641 L 492.13477 33.511719 L 498.47461 21.53125 L 493.37305 9.3320312 L 486.95312 8.9316406 L 483.70312 4.6914062 L 479.42383 10.050781 L 478.7832 17.341797 L 462.54297 33.181641 L 456.30469 25.8125 L 452.14453 28.361328 L 434.0332 26.681641 L 434.34375 21.421875 L 446.23438 26.091797 L 448.41406 24.322266 L 445.24414 24.572266 L 443.82422 16.982422 L 447.98438 13.242188 L 447.10352 6.2324219 L 436.0332 0.25195312 z M 122.74609 45.166016 L 125.05469 42.601562 L 122.73438 45.152344 L 122.74609 45.166016 z M 132.04492 43.482422 L 132.05469 43.472656 L 127.46289 42.351562 L 132.04492 43.482422 z M 463.84375 15.53125 L 465.42383 16.591797 L 463.77344 19.021484 L 461.9043 17.03125 L 461.18359 20.361328 L 465.60352 22.291016 L 465.46289 17.001953 L 468.46289 15.572266 L 463.84375 15.53125 z M 335.85547 49.597656 L 335.89453 49.621094 L 337.89258 61.84375 L 337.86328 61.822266 L 335.85547 49.597656 z M 345.97461 67.412109 L 346.00391 67.431641 L 339.76367 76.701172 L 342.54102 91.439453 L 342.51367 91.431641 L 339.72461 76.681641 L 345.97461 67.412109 z M 346.75 92.742188 L 346.7832 92.751953 L 345.36523 97.267578 L 345.33398 97.251953 L 346.75 92.742188 z M 347.7832 98.466797 L 347.81445 98.482422 L 347.95312 107.24219 L 344.60352 116.30078 L 331.80469 119.82227 L 324.70312 117.5918 L 317.56445 123.99219 L 319.8418 136.30273 L 319.81445 136.29102 L 317.5332 123.97266 L 324.67383 117.57227 L 331.77344 119.80078 L 344.57422 116.27148 L 347.91406 107.21094 L 347.7832 98.466797 z M 518.22461 112.32227 L 523.69531 114.38086 L 523.68359 114.39258 L 518.21875 112.33594 L 518.22461 112.32227 z M 322.08398 137.31445 L 322.12305 137.33203 L 320.62305 142.76172 L 324.86523 145.01953 L 324.86328 145.02148 L 320.62305 142.76172 L 320.58398 142.74219 L 322.08398 137.31445 z M 493.63477 140.87891 L 494.27344 148.00195 L 494.26367 148.00781 L 493.62305 140.88086 L 493.63477 140.87891 z M 471.48438 141.24219 L 474.48242 144.57812 L 474.47266 144.58984 L 471.48047 141.24414 L 471.48438 141.24219 z M 328.79297 141.83203 L 330.20703 143.70898 L 330.19336 143.71094 L 330.19141 143.73242 L 328.77344 141.84766 L 328.79297 141.83203 z M 437.52344 143.28125 L 442.54492 151.78711 L 442.52344 151.79102 L 437.50586 143.29492 L 437.52344 143.28125 z M 357.57422 145.90234 L 356.16406 150.92578 L 356.09375 150.90234 L 357.48047 145.95898 L 357.57422 145.90234 z M 351.02734 146.98633 L 351.09375 147.01172 L 350.47461 150.14258 L 350.39453 150.19141 L 351.02734 146.98633 z M 508.84961 147.84766 L 508.85352 147.85156 L 503.35352 150.53125 L 502.94336 147.88086 L 500.81641 148.95508 L 500.81445 148.95117 L 502.95312 147.87109 L 503.36328 150.52148 L 508.84961 147.84766 z M 326.67969 150.69922 L 328.77344 154.69141 L 328.76758 154.69531 L 326.67383 150.70117 L 326.67969 150.69922 z M 421.00781 150.70508 L 421.07422 150.75195 L 419.24414 155.36914 L 419.08398 155.5625 L 421.00781 150.70508 z M 359.29297 151.99609 L 359.34375 152.01172 L 360.43555 156.59961 L 360.39453 156.61133 L 359.29297 151.99609 z M 502.55273 156.20508 L 502.55469 156.21094 L 493.69336 159.71875 L 493.69336 159.71094 L 502.55273 156.20508 z M 311.67773 164.99609 L 314.25391 173.76172 L 315.24414 176.04102 L 315.23633 176.04883 L 314.26367 173.8125 L 311.67383 165.00195 L 311.67773 164.99609 z M 493.04297 167.64062 L 493.04297 167.64258 L 486.47461 172.99219 L 493.04297 167.64062 z M 365.89648 185.21484 L 367.24023 187.10742 L 366.49414 186.55078 L 365.89648 185.21484 z M 298.38867 186.05273 L 301.07422 189.21094 L 301.06836 189.23242 L 298.37305 186.0625 L 298.38867 186.05273 z M 368.65039 192.33594 L 368.6543 192.35156 L 365.80273 195.7793 L 365.79297 195.77148 L 368.65039 192.33594 z M 508.17383 192.5625 L 512.48633 193.14062 L 512.48438 193.15234 L 508.16992 192.57227 L 508.17383 192.5625 z M 338.27344 196.05664 L 338.77344 205.48242 L 338.77148 205.48242 L 338.26367 196.07227 L 338.27344 196.05664 z M 291.64453 204.90234 L 296.99414 206.0625 L 296.99023 206.0957 L 291.62305 204.93164 L 291.64453 204.90234 z M 374.96875 206.48047 L 375.99414 209.62109 L 371.25 212.6582 L 371.24414 212.64258 L 375.98438 209.60156 L 374.96875 206.48047 z M 331.85352 210.92188 L 338.44336 214.24219 L 342.97461 212.89258 L 342.98438 212.91211 L 338.45312 214.26172 L 331.86328 210.94141 L 331.37305 211.43164 L 331.36523 211.41016 L 331.85352 210.92188 z M 343.47461 213.9375 L 348.4043 224.24219 L 358.2832 227.55078 L 373.49414 220.47266 L 376.02344 219.39258 L 378.77539 219.15234 L 378.79297 219.17188 L 376.0332 219.42188 L 373.50391 220.49219 L 358.29297 227.58203 L 348.41406 224.27148 L 343.47461 213.9375 z M 431.61328 214.65234 L 437.72461 217.20117 L 437.72852 217.20898 L 431.62305 214.67188 L 424.75391 216.08203 L 422.9043 220.10156 L 422.89648 220.07812 L 424.74414 216.0625 L 431.61328 214.65234 z M 605.1543 214.95117 L 611.375 215.37891 L 611.37305 215.39258 L 605.14453 214.96289 L 605.1543 214.95117 z M 91.871094 215.82031 L 91.884766 215.83203 L 90.685547 221.98633 L 90.664062 221.98242 L 91.871094 215.82031 z M 408.71289 216.94141 L 418.47461 219.95117 L 422.11328 217.99219 L 422.12109 218.01367 L 418.49414 219.98242 L 408.72461 216.97266 L 407.71484 225.17773 L 407.70312 225.16211 L 408.71289 216.94141 z M 76.697266 218.68945 L 79.177734 221.96289 L 76.693359 218.69141 L 76.697266 218.68945 z M 441.88867 223.83203 L 446.30469 224.11133 L 446.30469 224.12109 L 441.89453 223.8418 L 441.88867 223.83203 z M 594.72461 225.01562 L 581.62305 229.91211 L 580.54102 229.36133 L 580.54297 229.3418 L 581.6543 229.89258 L 594.72461 225.01562 z M 220.75977 225.37891 L 211.54297 241.13086 L 211.54102 241.13086 L 220.75391 225.38086 L 220.75977 225.37891 z M 474.76367 225.89258 L 482.05469 231.96094 L 487.21289 235.12109 L 486.72461 239.96094 L 487.20312 235.12109 L 482.05469 231.96094 L 482.05469 231.96484 L 474.76367 225.90234 L 463.71289 234.15234 L 461.38086 232.8457 L 463.71289 234.14258 L 474.76367 225.89258 z M 458.61328 226.29102 L 460.09375 226.29102 L 460.09375 226.30078 L 458.62305 226.30078 L 446.34375 228.04102 L 458.61328 226.29102 z M 399.52344 227.74219 L 401.19336 234.73242 L 407.08398 234.27148 L 411.19531 230.28711 L 411.21289 230.3125 L 407.09375 234.30078 L 401.19336 234.76172 L 399.52344 227.77148 L 395.47461 232.95117 L 385.94336 235.40234 L 385.81445 238.87109 L 379.45312 234.36133 L 379.45508 234.33008 L 385.80469 238.83203 L 385.94336 235.37109 L 395.47461 232.92188 L 399.52344 227.74219 z M 610.88867 229.5332 L 617.05469 232.8125 L 618.00391 232.93164 L 620.67383 230.45117 L 623.14453 232.29102 L 623.41406 233.15234 L 630.86328 233.15234 L 637.88477 243.23242 L 645.60352 242.28125 L 649.82422 244.49219 L 655.27344 236.71094 L 649.82422 244.50195 L 645.60352 242.29102 L 637.88477 243.24219 L 630.86328 233.16211 L 623.41406 233.16211 L 623.14453 232.30078 L 620.67383 230.46094 L 618.00391 232.94141 L 617.05469 232.82227 L 610.88477 229.54102 L 610.88867 229.5332 z M 379.62305 230.30078 L 379.62109 230.35156 L 356.16406 238.53125 L 356.16406 238.49219 L 379.62305 230.30078 z M 260.22461 231.94141 L 260.22852 231.94727 L 252.2832 234.88086 L 252.2793 234.87891 L 260.22461 231.94141 z M 58.138672 232 L 59.984375 234.96094 L 59.974609 234.96875 L 58.134766 232.00195 L 58.138672 232 z M 553.48438 232.65234 L 559.47461 241.54102 L 565.16406 241.23242 L 565.1543 241.25195 L 559.45312 241.55078 L 553.46289 232.67188 L 546.07422 233.25195 L 546.09375 233.23242 L 553.48438 232.65234 z M 580.0332 234.50586 L 580.0332 234.51172 L 573.19531 238.67969 L 580.0332 234.50586 z M 567.89453 235.5625 L 570.91211 240.07031 L 570.89453 240.08203 L 567.88086 235.5918 L 567.89453 235.5625 z M 57.947266 236.6582 L 63.564453 243.55078 L 63.560547 243.55664 L 57.943359 236.66211 L 57.947266 236.6582 z M 348.73438 236.90234 L 351.98438 242.23242 L 356.16406 242.32227 L 356.16406 242.36133 L 351.98438 242.27148 L 348.73438 236.94141 L 346.72852 238.82812 L 346.71289 238.80078 L 348.73438 236.90234 z M 313.60352 238.20117 L 313.61914 238.22461 L 302.94336 245.52148 L 305.43359 245.85156 L 305.38867 245.86328 L 302.95312 245.53125 L 300.19336 243.8125 L 300.19336 243.78906 L 302.92383 245.49219 L 313.60352 238.20117 z M 531.96289 238.5625 L 537.43359 242.27148 L 537.41406 242.29102 L 531.94531 238.58398 L 531.96289 238.5625 z M 524.61328 239.02148 L 528.50391 242.57227 L 530.8418 239.86133 L 528.48438 242.60156 L 524.59961 239.04688 L 524.61328 239.02148 z M 512.14453 239.93164 L 522.97461 241.90039 L 522.96289 241.92188 L 512.14453 239.93164 z M 315.43555 240.99023 L 318.37305 245.46094 L 323.88477 244.85156 L 331.60352 250.85156 L 334.50391 247.63086 L 343.12305 247.63086 L 344.68359 241.32227 L 348.73438 242.38672 L 348.75391 242.42188 L 344.68359 241.35156 L 343.13477 247.66211 L 334.51367 247.66211 L 331.61328 250.88086 L 323.89453 244.87109 L 318.38477 245.49219 L 315.43555 240.99023 z M 300.16406 243.0625 L 300.16406 243.13867 L 295.1543 249.41211 L 295.12305 249.37109 L 300.16406 243.0625 z M 293.41406 247.16211 L 293.44336 247.20117 L 276.07422 251.0625 L 274.77344 251.0625 L 266.50391 250.42188 L 266.47461 250.38086 L 274.74414 251.02148 L 276.04297 251.02148 L 293.41406 247.16211 z M 318.83398 259.20117 L 318.84961 259.2168 L 311.34375 268.33203 L 304.16406 268.21094 L 304.16016 268.20117 L 311.32422 268.32227 L 318.83398 259.20117 z M 363.73438 288.86133 L 353.24414 289.68164 L 348.20312 295.33203 L 348.20508 295.32031 L 353.22461 289.68164 L 363.73438 288.86133 z M 374.97461 290.8418 L 374.97461 290.85547 L 371.13477 292.10156 L 371.12891 292.09961 L 374.97461 290.8418 z M 396.00391 296.13086 L 396.00195 296.13477 L 383.25391 300.86133 L 383.25195 300.85742 L 396.00391 296.13086 z M 381.10352 296.52148 L 381.10938 296.53125 L 376.13477 297.35156 L 374.38477 300.16211 L 374.38672 300.13086 L 376.12305 297.35156 L 381.10352 296.52148 z M 485.02539 298.59375 L 496.09375 299.38086 L 496.09375 299.39258 L 485.01367 298.60156 L 485.02539 298.59375 z M 496.51367 304.24023 L 500.76367 307.40234 L 505.60352 304.8418 L 505.58008 304.86914 L 500.77344 307.41211 L 496.51367 304.24219 L 496.51367 304.24023 z M 399.02344 308.94141 L 399.00195 308.9668 L 393.00391 312.0625 L 393 312.04688 L 399.02344 308.94141 z M 504.10156 311.4043 L 509.4043 312.3125 L 509.39648 312.31836 L 504.10352 311.41211 L 504.10156 311.4043 z M 516.67383 315.0918 L 516.67969 315.10352 L 509.87305 318.27148 L 509.86719 318.25977 L 516.67383 315.0918 z M 394.65625 326.71875 L 403.55469 331.82227 L 403.55078 331.83398 L 394.6543 326.72266 L 394.65625 326.71875 z M 559.99414 330.17188 L 569.23438 336.93164 L 577.77344 331.57227 L 577.7793 331.58398 L 569.24414 336.94141 L 560.00391 330.18164 L 557.26953 335.35156 L 557.25391 335.35156 L 559.99414 330.17188 z M 560.32812 335.36133 L 560.33398 335.36133 L 561.83398 338.83203 L 554.77344 345.61133 L 546.64453 342.87109 L 536.10352 349.93164 L 536.0957 349.92188 L 546.63477 342.86133 L 554.76367 345.60156 L 561.82422 338.82227 L 560.32812 335.36133 z M 523.93555 338.21094 L 534.06445 341.19141 L 534.0625 341.19727 L 523.94336 338.22266 L 523.93555 338.21094 z M 593.5332 339.46094 L 593.54297 339.47266 L 582.57422 341.47266 L 582.56836 341.46094 L 593.5332 339.46094 z M 397.26953 339.66602 L 401.21289 343.60156 L 401.20117 343.60742 L 397.25391 339.67188 L 397.26953 339.66602 z M 601.29688 347.85156 L 609.77344 348.67188 L 609.77148 348.67969 L 601.30469 347.86133 L 601.29688 347.85156 z M 618.58398 351.96094 L 618.57812 351.97266 L 608.91406 352.33203 L 608.91602 352.32227 L 618.58398 351.96094 z M 645.97461 355.00195 L 668.67383 360.20117 L 668.67578 360.20898 L 645.98438 355.01172 L 643.77344 361.12109 L 643.76367 361.11133 L 645.97461 355.00195 z M 669.46094 363.08594 L 674.67383 365.03125 L 674.67383 365.03711 L 669.46289 363.0918 L 669.46094 363.08594 z M 647.26367 365.0918 L 647.27344 365.10156 L 642.60742 375.17188 L 642.59375 375.17188 L 647.26367 365.0918 z M 619.31055 369.01172 L 623.84375 369.10156 L 623.83984 369.11133 L 619.31445 369.02148 L 619.31055 369.01172 z M 649.56055 375.64062 L 649.58398 375.64258 L 641.94336 381.3125 L 636.00391 380.25195 L 635.2832 383.25195 L 635.27539 383.23633 L 635.99414 380.24219 L 641.93359 381.30078 L 649.56055 375.64062 z M 627.38477 379.15234 L 633.66406 380.0918 L 633.66797 380.10156 L 627.39453 379.16211 L 619.00391 381.10156 L 619.00977 381.08789 L 627.38477 379.15234 z M 339.55664 382.93945 L 350.72461 391.62109 L 354.94336 386.86133 L 356.82422 387.95117 L 358.73438 387.95117 L 361.49414 389.96094 L 358.76367 387.98242 L 356.85352 387.98242 L 354.96289 386.89258 L 350.74414 391.65234 L 339.55469 382.94141 L 339.55664 382.93945 z M 679.33398 397.92188 L 679.33203 397.93164 L 675.26367 398.02148 L 675.26367 398.01172 L 679.33398 397.92188 z M 359.69141 444.93164 L 363.32422 446.19141 L 363.32617 446.21289 L 359.69336 444.95117 L 359.69141 444.93164 z " />
</svg>
