<?xml version="1.0" encoding="UTF-8" standalone="no"?>
<svg
   xmlns:mapsvg="http://mapsvg.com"
   xmlns:dc="http://purl.org/dc/elements/1.1/"
   xmlns:cc="http://creativecommons.org/ns#"
   xmlns:rdf="http://www.w3.org/1999/02/22-rdf-syntax-ns#"
   xmlns:svg="http://www.w3.org/2000/svg"
   xmlns="http://www.w3.org/2000/svg"
   xmlns:sodipodi="http://sodipodi.sourceforge.net/DTD/sodipodi-0.dtd"
   xmlns:inkscape="http://www.inkscape.org/namespaces/inkscape"
   width="612.51611"
   height="639.04297"
   mapsvg:geoViewBox="-74.008595 5.275696 -34.789914 -33.743888"
   version="1.1"
   id="svg29"
   sodipodi:docname="brazil.svg"
   inkscape:version="1.0.1 (3bc2e813f5, 2020-09-07)">
  <metadata
     id="metadata35">
    <rdf:RDF>
      <cc:Work
         rdf:about="">
        <dc:format>image/svg+xml</dc:format>
        <dc:type
           rdf:resource="http://purl.org/dc/dcmitype/StillImage" />
        <dc:title></dc:title>
      </cc:Work>
    </rdf:RDF>
  </metadata>
  <defs
     id="defs33" />
  <sodipodi:namedview
     pagecolor="#ffffff"
     bordercolor="#666666"
     borderopacity="1"
     objecttolerance="10"
     gridtolerance="10"
     guidetolerance="10"
     inkscape:pageopacity="0"
     inkscape:pageshadow="2"
     inkscape:window-width="1920"
     inkscape:window-height="1017"
     id="namedview31"
     showgrid="false"
     inkscape:zoom="0.665057"
     inkscape:cx="243.16245"
     inkscape:cy="445.31666"
     inkscape:window-x="-8"
     inkscape:window-y="-8"
     inkscape:window-maximized="1"
     inkscape:current-layer="svg29" />
  <path
     id="BR-AC"
     d="M 215.68164 0.26171875 L 214.94336 0.48046875 L 213.88281 1.4316406 L 210.3125 1.53125 L 209.51172 1.2109375 L 208.08203 1.140625 L 207.44336 1.3203125 L 208.61328 1.6816406 L 209.8125 5.2402344 L 208.70312 6.9511719 L 207.60352 7.9902344 L 205.75195 8.890625 L 205.00195 9.0214844 L 204.41211 10.140625 L 204.32227 10.851562 L 203.43164 11.980469 L 200.67188 12.371094 L 198.3418 12.181641 L 195.3125 13.990234 L 195.26172 15.341797 L 194.58203 16.191406 L 193.47266 16.261719 L 192.32227 16.03125 L 191.32227 16.28125 L 189.98242 17.560547 L 188.95312 17.771484 L 187.82227 17.421875 L 186.79297 17.720703 L 185.99219 18.441406 L 185.40234 18.611328 L 181.50195 17.271484 L 180.75195 17.220703 L 179.20312 18.310547 L 178.19336 19.412109 L 176.26172 19.460938 L 175.80273 19.740234 L 175.44336 21.480469 L 176.27344 24.240234 L 176.17188 25.082031 L 175.43164 26.210938 L 173.92188 26.890625 L 173.21289 26.78125 L 172.16211 26.210938 L 168.23242 21.640625 L 166.7832 20.710938 L 165.47266 20.570312 L 164.86328 22.130859 L 164.3418 22.271484 L 163.74219 22.121094 L 162.43164 20.912109 L 161.96289 20.861328 L 158.7832 20.701172 L 157.83203 21.101562 L 157.0918 21.751953 L 156.13281 21.832031 L 155.5918 21.480469 L 155.04297 19.550781 L 154.43164 18.351562 L 152.52344 17.761719 L 151.17188 17.662109 L 147.7832 18.162109 L 147.17188 18.070312 L 146.23242 16.341797 L 145.11328 15.681641 L 144.21289 15.611328 L 143.92188 15.941406 L 143.89258 16.78125 L 144.14258 17.171875 L 145.2832 17.820312 L 145.57227 18.78125 L 146.63281 20.591797 L 149.44336 23.371094 L 151.60352 24.431641 L 153.44336 26.431641 L 153.52344 27.390625 L 152.73242 28.871094 L 153.20312 32.591797 L 153.93164 34.650391 L 155.87305 38.191406 L 156.60352 39.960938 L 156.48242 41.441406 L 155.68164 43.201172 L 155.88281 43.800781 L 159.19336 44.501953 L 162.94336 44.361328 L 166.3125 44.591797 L 166.61328 44.810547 L 166.38281 47.091797 L 166.08203 47.550781 L 165.7832 48.791016 L 163.50195 49.091797 L 162.54297 49.460938 L 160.48242 51.060547 L 159.14258 51.451172 L 157.40234 51.470703 L 156.37305 51.890625 L 155.60352 52.810547 L 155.63281 54.101562 L 155.19336 56.761719 L 154.64258 57.582031 L 152.2832 59.230469 L 150.25195 58.681641 L 148.14258 59.890625 L 147.12305 61.501953 L 145.52344 62.541016 L 144.5918 62.832031 L 143.62305 62.28125 L 140.69336 64.050781 L 139.18164 64.412109 L 138.67188 64.78125 L 138.21289 67.091797 L 137.80273 67.751953 L 137.25195 67.931641 L 136.25195 67.751953 L 135.7832 67.980469 L 134.7832 69.140625 L 134.55273 70.431641 L 133.99219 71.341797 L 132.66211 72.060547 L 132.08203 71.791016 L 131.71289 70.810547 L 132.82227 69.111328 L 132.8418 68.140625 L 132.07227 67.060547 L 131.51172 66.771484 L 129.32227 66.880859 L 127.21289 68.041016 L 125.51172 69.740234 L 123.21289 70.740234 L 120.71289 70.53125 L 119.92188 70.251953 L 111.61328 63.191406 L 108.41211 63.941406 L 108.21289 62.181641 L 108.70312 58.550781 L 108.47266 57.001953 L 107.8125 55.220703 L 107.07227 53.921875 L 105.45312 51.931641 L 104.2832 49.351562 L 102.99219 48.890625 L 100.44336 50.28125 L 99.181641 51.521484 L 98.863281 52.361328 L 96.921875 54.451172 L 95.3125 55.060547 L 94.482422 55.050781 L 93.822266 54.701172 L 92.953125 53.380859 L 92.341797 51.861328 L 90.912109 51.460938 L 89.962891 53.390625 L 90.341797 54.591797 L 91.132812 54.730469 L 91.591797 55.390625 L 72.5625 55.332031 L 69.722656 54.460938 L 67.443359 55.060547 L 66.123047 55.640625 L 65.162109 55.601562 L 65.222656 65.501953 L 68.792969 65.412109 L 71.582031 66.021484 L 73.091797 65.490234 L 74.242188 66.091797 L 74.8125 66.630859 L 76.181641 68.730469 L 75.882812 70.451172 L 76.373047 72.140625 L 75.103516 72.570312 L 73.882812 72.460938 L 71.203125 70.701172 L 67.703125 71.621094 L 65.953125 72.791016 L 62.0625 73.050781 L 61.863281 84.560547 L 63.802734 86.841797 L 66.832031 89.191406 L 68.533203 89.78125 L 68.902344 90.181641 L 69.421875 91.960938 L 68.773438 93.351562 L 68.8125 93.841797 L 70.292969 96.591797 L 71.591797 97.640625 L 71.472656 97.900391 L 72.462891 102.86133 L 71.302734 105.78125 L 64.603516 142.95117 L 63.431641 147.87109 L 63.542969 148.26172 L 63.082031 149.04102 L 62.501953 149.44141 L 59.671875 149.36133 L 58.0625 148.07031 L 58.082031 146.89062 L 57.773438 146.36133 L 56.0625 146.24023 L 54.962891 146.98047 L 53.642578 147.2207 L 53.001953 146.68164 L 50.863281 146.48047 L 49.773438 147.0918 L 49.142578 148.54102 L 47.841797 150.13086 L 44.511719 149.75195 L 42.693359 150.11133 L 41.193359 150.88086 L 37.001953 152.10156 L 35.492188 151.81055 L 33.072266 152.24023 L 29.533203 154.9707 L 27.882812 155.90039 L 26.472656 156.01172 L 25.693359 156.38086 L 25.251953 157.78125 L 24.103516 158.82031 L 21.912109 160.05078 L 18.251953 161.68164 L 17.523438 162.43164 L 17.212891 164.74023 L 16.542969 166.78125 L 16.832031 168.10156 L 16.533203 169.8418 L 16.113281 170.82031 L 15.193359 172.07031 L 13.912109 173.39062 L 12.732422 175.58203 L 12.353516 176.77148 L 14.091797 181.26172 L 14.011719 182.29102 L 13.033203 183.85156 L 12.5625 184.15039 L 10.302734 184.39062 L 5.3828125 187.86133 L 4.1621094 189.26172 L 3.4628906 192.18164 L 3.5332031 192.83203 L 4.703125 194.40039 L 4.921875 195.75195 L 4.421875 196.14062 L 1.4121094 196.53125 L 1.421875 197.8418 L 0.921875 199.16211 L 0.30273438 199.21094 L 0.26171875 199.58203 L 2.4316406 201.4707 L 2.7929688 202.13086 L 4.9121094 203.06055 L 5.1132812 203.48047 L 5.0429688 204.15039 L 4.6230469 204.67188 L 3.8125 204.57031 L 3.8925781 205.74023 L 5.7734375 206.82031 L 6.6425781 208.46094 L 7.6230469 212.08203 L 9.6230469 213.61133 L 10.542969 215.99023 L 11.671875 217.12109 L 12.572266 217.31055 L 13.341797 217.75195 L 15.023438 220.70117 L 15.853516 221.14062 L 16.533203 222.05078 L 16.751953 223.28125 L 16.462891 224.48047 L 15.572266 225.71094 L 13.082031 227.9707 L 12.8125 228.53125 L 20.152344 228.7207 L 25.751953 229.9707 L 26.841797 230.61133 L 27.613281 232.56055 L 27.341797 233.71094 L 27.482422 234.16211 L 28.732422 234.86133 L 28.982422 235.35156 L 29.193359 236.18164 L 28.652344 237.99023 L 30.732422 238.03125 L 42.533203 237.88086 L 44.341797 236.89062 L 44.992188 235.81055 L 46.943359 235.14062 L 49.001953 232.76172 L 50.603516 231.75195 L 53.572266 229.16211 L 54.732422 228.96094 L 54.251953 230.10156 L 53.283203 231.28125 L 53.542969 232.16211 L 53.472656 234.51172 L 53.001953 235.2207 L 52.953125 236.32031 L 52.912109 253.87109 L 54.552734 252.71094 L 55.953125 254.15039 L 57.632812 254.82031 L 60.363281 254.20117 L 63.921875 252.37109 L 66.193359 252.54102 L 66.853516 253.12109 L 71.943359 252.74023 L 77.181641 253.21094 L 80.732422 253.98047 L 82.091797 253.78125 L 82.011719 255.89062 L 83.042969 255.86133 L 84.982422 255.35156 L 85.822266 254.66211 L 89.591797 253.41211 L 92.033203 249.93164 L 92.392578 249.07031 L 93.023438 248.62109 L 93.703125 248.36133 L 96.072266 248.31055 L 96.832031 248.44141 L 98.001953 249.19141 L 98.613281 248.91211 L 99.052734 247.73047 L 100.49219 245.90039 L 102.57227 244.91211 L 104.49219 243.61133 L 104.54297 243.05078 L 106.07227 242.87109 L 106.73242 243.05078 L 108.38281 242.19141 L 111.24219 239.40039 L 113.33203 237.81055 L 114.90234 237.15039 L 115.20312 236.67188 L 116.68164 236.19141 L 118.37305 236.20117 L 123.98242 234.42188 L 129.16211 234.3418 L 131.3418 235.36133 L 131.91211 235.36133 L 132.75195 234.40039 L 132.8125 233.89062 L 133.90234 232.91211 L 134.92188 233.29102 L 136.0918 235.4707 L 135.55273 237.12109 L 135.64258 238.65039 L 136.0625 239.54102 L 136.30273 241.03125 L 135.94336 242.50195 L 134.90234 243.55078 L 134.52344 244.92188 L 133.90234 245.42188 L 133.96289 247.71094 L 134.71289 249.87109 L 135.87305 251.8418 L 136.08203 253.50195 L 134.5332 256.41211 L 134.70312 258.07031 L 135.96289 261.54102 L 137.32227 261.93164 L 138.16211 263.45117 L 137.54297 264.98047 L 137.8125 265.62109 L 138.47266 265.94141 L 138.95312 264.78125 L 139.83203 265.67188 L 140.67188 269.38086 L 141.05273 269.73047 L 143.77344 270.01172 L 144.0625 270.21094 L 144.88281 271.93164 L 146.77344 272.90039 L 148.35352 273.39062 L 148.65234 275.36133 L 149.83203 276.55078 L 150.5918 276.98047 L 153.65234 277.26172 L 155.79297 277.77148 L 156.10352 278.07031 L 157.5332 278.24023 L 158.43164 277.39062 L 159.57227 276.85156 L 161.5332 277.02148 L 164.66211 278.60156 L 165.5332 279.93164 L 166.94336 280.73047 L 168.16211 280.76172 L 169.93164 279.64062 L 170.97266 280.03125 L 171.25195 281.42188 L 172.11328 282.88086 L 173.63281 283.85156 L 175.61328 285.53125 L 176.88281 284.94141 L 177.54297 285.55078 L 177.55273 285.95117 L 181.62305 287.76172 L 183.43164 287.68164 L 184.29297 287.36133 L 185.85352 287.88086 L 186.29297 289.76172 L 187.58203 291.21094 L 189.5918 292.67188 L 190.11328 294.02148 L 190.5918 294.18164 L 193.97266 293.52148 L 194.22266 293.82031 L 195.54297 294.25195 L 202.62305 293.29102 L 203.89258 294.7207 L 206.48242 296.27148 L 207.22266 296.31055 L 208.29297 297.21094 L 211.40234 298.25195 L 212.8418 301.18164 L 212.19336 302.46094 L 211.58203 303.01172 L 211.32227 304.07031 L 211.8125 306.04102 L 214.45312 311.36133 L 214.80273 318.91211 L 209.92188 318.9707 L 215.29297 325.10156 L 216.3418 337.75195 L 243.20312 338.83203 L 243.58203 338.67188 L 243.98242 338.07031 L 244.94336 338.01172 L 244.99219 339.90039 L 244.65234 341.68164 L 243.51172 342.77148 L 242.63281 344.41211 L 242.82227 348.07031 L 243.43164 349.8418 L 243.66211 352.77148 L 243.96289 353.89062 L 244.26172 354.21094 L 246.15234 354.9707 L 248.17188 356.38086 L 248.62305 357.08203 L 249.79297 357.76172 L 250.3125 357.81055 L 251.5918 357.18164 L 254.0332 359.33203 L 253.49219 360.04102 L 253.8125 360.8418 L 254.47266 361.51172 L 254.44336 363.42188 L 257.5332 369.27148 L 256.87305 370.43164 L 253.64258 380.76172 L 254.38281 380.89062 L 254.66211 383.02148 L 253.54297 383.08203 L 248.16211 394.50195 L 252.36328 398.36133 L 251.60352 399.24023 L 247.57227 401.54102 L 247.92188 403.37109 L 249.13281 405.39062 L 249.92188 407.26172 L 250.5625 410.52148 L 251.05273 409.87109 L 251.48242 409.96094 L 252.24219 410.92188 L 252.29297 412.65039 L 252.95312 414.98047 L 252.35352 421.01172 L 251.37305 422.4707 L 250.77344 423.89062 L 251.20312 426.27148 L 250.29297 433.54102 L 252.79297 434.42188 L 253.68164 433.90039 L 255.67188 434.03125 L 256.15234 434.94141 L 259.8125 435.65039 L 263.27344 435.42188 L 265.83203 435.91211 L 267.57227 436.60156 L 268.65234 436.44141 L 270.37305 435.63086 L 271.37305 436.23047 L 273.54297 433.49023 L 275.08203 433.16211 L 275.64258 434.65039 L 278.10352 436.61133 L 279.93164 436.90039 L 281.44336 436.5918 L 283.61328 436.85156 L 285.26172 438.67188 L 285.42188 440.83203 L 285.80273 441.63086 L 287.37305 442.7207 L 287.35352 444.33203 L 286.76172 445.69141 L 286.8125 446.41211 L 287.41211 449.15039 L 288.30273 451.12109 L 288.30273 453.99023 L 288.39258 454.43164 L 289.0332 455.2207 L 288.52344 456.56055 L 288.75195 459.03125 L 289.65234 459.98047 L 289.97266 460.68164 L 290.44336 464.95117 L 291.45312 465.60156 L 293.8125 466.06055 L 296.39258 465.63086 L 298.05273 465.14062 L 298.73242 464.39062 L 302.72266 462.42188 L 306.13281 464.31055 L 308.68164 466.64062 L 307.89258 467.18164 L 307.23242 468.24023 L 307.54297 469.8418 L 308.38281 470.7207 L 308.5918 471.74023 L 307.3125 474.12109 L 307.5625 476.42188 L 306.30273 479.44141 L 305.40234 483.08203 L 305.38281 484.32031 L 305.87305 485.07031 L 305.8125 485.41211 L 304.5918 487.5918 L 303.52344 488.86133 L 302.86328 490.43164 L 303.14258 492.63086 L 303.96289 492.57031 L 305.42188 493.65039 L 306.49219 492.75195 L 307.5918 492.32031 L 309.71289 492.43164 L 310.80273 491.30078 L 314.22266 493.67188 L 315.21289 496.55078 L 315.19336 499.14062 L 317.72266 503.32031 L 317.93945 504.51172 L 317.92188 504.51172 L 316.96289 506.26172 L 317.00195 508.81055 L 316.5918 512.02148 L 317.17188 515.27148 L 316.44336 517.36133 L 314.99219 520.29102 L 318.51172 520.68164 L 321.77344 519.52148 L 322.33203 518.71094 L 323.68164 519.29102 L 323.67773 519.31445 L 322.3418 518.74023 L 321.7832 519.55078 L 318.52344 520.70117 L 315.00195 520.31055 L 314.70312 519.93164 L 312.39258 520.66211 L 311.38281 522.01172 L 310.71289 522.40039 L 310.21289 522.39062 L 308.11328 524.74023 L 306.90234 525.31055 L 304.22266 525.90039 L 301.7832 527.03125 L 300.45312 527.20117 L 300.16211 527.00195 L 300.11328 526.64062 L 299.7832 526.68164 L 298.46289 529.04102 L 298.3125 530.10156 L 296.54297 531.91211 L 294.07227 532.31055 L 291.86328 533.46094 L 291.04297 534.37109 L 290.94336 535.29102 L 289.89258 536.36133 L 287.10352 537.31055 L 286.2832 538.27148 L 285.20312 538.65039 L 284.85352 538.98047 L 284.90234 539.3418 L 286.25195 540.16211 L 286.46289 540.74023 L 285.99219 542.02148 L 285.44336 541.23047 L 283.87305 541.05078 L 282.94336 541.3418 L 281.60352 543.44141 L 281.0918 544.73047 L 280.24219 545.88086 L 278.61328 547.68164 L 276.97266 548.54102 L 276.66211 548.91211 L 276.5625 549.52148 L 274.60352 553.74023 L 273.23242 554.15039 L 272.0332 555.00195 L 271.21289 556.07031 L 271.04297 557.18164 L 270.41211 558.60156 L 264.96289 565.08203 L 264.04297 566.08203 L 263.40234 566.3418 L 262.11328 566.41211 L 261.29297 566.86133 L 260.69336 568.11133 L 260.58203 569.95117 L 258.0625 572.7207 L 257.02344 573.44141 L 256.17188 573.66211 L 256.66211 573.88086 L 256.82227 574.79102 L 257.47266 575.27148 L 260.63281 575.13086 L 261.21289 575.61133 L 262.32227 575.5918 L 263.35352 574.62109 L 263.41211 573.66211 L 264.55273 572.30078 L 266.70312 572.0918 L 268.60352 572.23047 L 271.29297 574.44141 L 273.04297 576.55078 L 275.22266 578.61133 L 277.5918 580.38086 L 281.24219 584.67188 L 281.63281 585.67188 L 281.23242 586.95117 L 281.13281 589.81055 L 283.80273 589.69141 L 286.39258 587.45117 L 287.0625 585.66211 L 287.76172 585.58203 L 290.29297 587.70117 L 291.40234 589.19141 L 293.3125 592.90039 L 295.48242 594.28125 L 297.24219 594.15039 L 298.97266 595.81055 L 299.89258 596.28125 L 303.21289 596.74023 L 305.11328 598.90039 L 305.25195 600.60156 L 306.50195 601.38086 L 308.02344 603.01172 L 309.92188 604.52148 L 311.37305 604.31055 L 313.76172 605.52148 L 314.43164 606.11133 L 316.49219 608.35156 L 317.72266 610.38086 L 318.15234 611.56055 L 318.25195 613.15039 L 319.46289 614.77148 L 321.7832 617.02148 L 324.0332 617.62109 L 325.10352 618.24023 L 326.5625 619.89062 L 324.26172 622.45117 L 323.43164 624.01172 L 320.5918 626.39062 L 319.96289 627.63086 L 319.8125 628.70117 L 320.27344 632.95117 L 319.75195 637.2207 L 319.95312 637.68164 L 321.89258 638.79102 L 322.25195 638.78125 L 324.42188 637.19141 L 332.21289 629.66211 L 333.89258 627.14062 L 335.90234 622.65039 L 337.83203 615.77148 L 340.15234 611.25195 L 342.2832 609.60156 L 342.13281 608.69141 L 340.83203 608.06055 L 340.15234 608.20117 L 339.72266 607.60156 L 339.97266 606.0918 L 340.92188 605.53125 L 340.67188 604.51172 L 340.19336 603.68164 L 340.30273 601.92188 L 342.66211 600.62109 L 343.63281 598.35156 L 343.73242 596.08203 L 344.26172 594.49023 L 344.98242 593.96094 L 349.07227 592.39062 L 349.68164 590.81055 L 351.29297 590.17188 L 352.01172 589.4707 L 351.79297 588.95117 L 351.8418 587.06055 L 353.25195 583.79102 L 353.2832 582.42188 L 353.8125 581.76172 L 354.26172 582.15039 L 354.73242 583.43164 L 354.76172 584.14062 L 354.50195 584.38086 L 354.98242 584.75195 L 355.16211 583.98047 L 354.7832 580.95117 L 355.52344 578.41211 L 356.0918 577.60156 L 354.8418 575.49023 L 354.40234 573.24023 L 355.01172 570.53125 L 355.65234 571.2207 L 355.5332 571.79102 L 355.93164 573.24023 L 356.66211 574.50195 L 357.26172 574.98047 L 358.30273 574.65039 L 359.12305 575.54102 L 359.02344 577.25195 L 359.83203 577.69141 L 360.36328 577.64062 L 360.70312 576.03125 L 362.71289 575.63086 L 364.22266 575.65039 L 364.57227 575.45117 L 364.71289 574.88086 L 364.54297 574.49023 L 364.80273 573.80078 L 365.47266 573.83203 L 366.42188 575.05078 L 366.52344 575.49023 L 366.05273 578.57031 L 365.62305 578.99023 L 365.25195 578.96094 L 364.75195 578.16211 L 364.19336 578.8418 L 364.40234 581.12109 L 363.93164 583.87109 L 363.20312 584.95117 L 360.46289 586.54102 L 359.98242 587.11133 L 359.47266 589.18164 L 359.76172 590.58203 L 359.41211 590.8418 L 359.14258 590.01172 L 358.40234 589.71094 L 356.83203 589.78125 L 356.63281 591.15039 L 356.86328 593.25195 L 356.68164 594.18164 L 356.3125 595.66211 L 355.38281 596.93164 L 354.33203 597.77148 L 353.3125 597.96094 L 352.86328 597.77148 L 352.11328 598.46094 L 349.26172 602.17188 L 348.44336 602.85156 L 345.86328 604.26172 L 344.8418 604.2207 L 344.2832 603.64062 L 343.27344 603.24023 L 342.3418 603.41211 L 342.24219 603.83203 L 343.42188 605.54102 L 343.08203 607.7207 L 342.43164 609.30078 L 342.61328 609.73047 L 345.71289 605.42188 L 351.80273 601.74023 L 358.3125 595.78125 L 363.75195 589.12109 L 370.05273 578.64062 L 374.26172 567.04102 L 378.16211 560.00195 L 379.5625 558.27148 L 380.60352 556.39062 L 384.35352 551.95117 L 387.15234 549.39062 L 391.2832 546.35156 L 392.92188 545.70117 L 393.8418 544.04102 L 392.68164 543.21094 L 392.50195 540.78125 L 392.76172 540.45117 L 393.68164 541.63086 L 393.47266 542.60156 L 393.83203 543.36133 L 394.17188 543.46094 L 395.88281 538.78125 L 396.40234 534.77148 L 397.26172 532.43164 L 396.35352 530.55078 L 396.04297 528.62109 L 396.61328 527.87109 L 396.04297 525.28125 L 396.38281 521.44141 L 397.57227 520.81055 L 398.00195 521.0918 L 398.47266 521.03125 L 398.37305 520.16211 L 398.02344 519.44141 L 397.25195 519.95117 L 396.82227 519.75195 L 396.51172 519.20117 L 396.25195 513.3418 L 395.49219 512.61133 L 395.39258 512.18164 L 395.55273 509.86133 L 396.5625 507.57031 L 396.00195 506.62109 L 394.29297 504.96094 L 393.70312 502.24023 L 393.72266 501.12109 L 394.54297 503.65039 L 395.52344 504.13086 L 397.02344 502.99023 L 397.0918 502.60156 L 396.58203 500.95117 L 396.96289 499.66211 L 397.01172 499.66211 L 397.21289 498.9707 L 397.0625 497.78125 L 394.11328 497.98047 L 394.3125 497.53125 L 396.73242 496.96094 L 397.97266 496.19141 L 399.51172 493.41211 L 400.48242 492.73047 L 400.21289 492.25195 L 398.08203 491.65039 L 396.68164 491.90039 L 395.07227 491.3418 L 394.73242 490.9707 L 394.91211 490.07031 L 395.36328 489.95117 L 396.15234 490.49023 L 398.63281 491.02148 L 398.93164 490.92188 L 399.66211 489.96094 L 399.14258 489.16211 L 399.42188 488.23047 L 399.96289 487.86133 L 400.5332 488.03125 L 400.87305 488.42188 L 401.74219 488.44141 L 402.63281 487.95117 L 404.04297 487.67188 L 402.60352 488.62109 L 402.33203 490.56055 L 402.88281 490.68164 L 403.49219 489.20117 L 404.8418 488.18164 L 404.68164 486.86133 L 403.26172 486.28125 L 404.68164 486.85156 L 404.8418 488.18164 L 405.90234 486.70117 L 407.22266 485.85156 L 407.8418 484.54102 L 407.8418 483.78125 L 406.91211 484.14062 L 406.25195 484.08203 L 405.35352 483.65039 L 405.79297 483.03125 L 406.46289 482.95117 L 408.79297 480.99023 L 413.29297 477.78125 L 415.21289 477.25195 L 418.46289 475.30078 L 421.73242 472.30078 L 422.04297 471.14062 L 422.99219 470.32031 L 430.61328 466.08203 L 430.91211 465.4707 L 430.65234 464.7207 L 431.48242 463.49023 L 432.65234 464.3418 L 433.13281 465.56055 L 432.55273 466.03125 L 433.05273 466.15039 L 434.36328 465.58203 L 435.57227 463.43164 L 436.07227 462.92188 L 437.80273 462.10156 L 439.12305 461.76172 L 439.98242 461.61133 L 443.10352 462.11133 L 444.44336 462.40039 L 445.14258 463.04102 L 446.54297 462.78125 L 446.86328 462.36133 L 446.36328 460.81055 L 446.32227 459.85156 L 446.60352 459.41211 L 448.85352 458.71094 L 452.07227 457.16211 L 452.83203 456.52148 L 452.5625 456.30078 L 452.99219 455.65039 L 454.47266 454.54102 L 455.5332 455.36133 L 457.22266 454.94141 L 457.27148 454.7793 L 458.67188 454.61133 L 459.61328 454.78125 L 460.76172 453.70117 L 459.69336 452.69141 L 457.50195 452.56055 L 457.69336 450.66211 L 458.0332 449.75195 L 461.18164 448.95117 L 462.14258 447.89062 L 463.04297 447.4707 L 463.52344 447.4707 L 464.87305 449.62109 L 465.57227 449.67188 L 466.60352 449.35156 L 467.96289 447.75195 L 470.77344 447.07031 L 472.17188 447.57031 L 474.70312 449.12109 L 472.11328 449.71094 L 468.92188 449.49023 L 468.54297 449.76172 L 468.61328 450.54102 L 470.07227 450.0918 L 478.11328 449.02148 L 479.68164 449.05078 L 481.3125 448.54102 L 481.90234 448.02148 L 481.65234 447.05078 L 480.27344 445.88086 L 479.96289 445.0918 L 480.22266 444.40039 L 483.01172 443.25195 L 483.79297 443.43164 L 483.88281 444.05078 L 483.21289 445.50195 L 482.18164 446.98047 L 482.24219 447.66211 L 482.73242 448.04102 L 485.12305 448.50195 L 490.91211 447.80078 L 497.46289 447.9707 L 499.2832 447.46094 L 500.01172 445.98047 L 500.20312 444.36133 L 499.89258 443.17188 L 500.00195 441.51172 L 503.50195 437.82031 L 506.33203 436.10156 L 512.30273 434.16211 L 515.38281 432.41211 L 515.88281 431.73047 L 514.74219 424.95117 L 514.96289 422.82031 L 515.90234 421.21094 L 515.98242 419.94141 L 515.94727 419.91797 L 516.23242 418.80078 L 517.82227 416.78125 L 518.24219 415.53125 L 518.30273 414.14062 L 519.10352 412.91211 L 520.96289 412.25195 L 521.20312 412.52148 L 524.65234 408.68164 L 526.5918 404.44141 L 525.24219 403.92188 L 525.5332 402.64062 L 526.41211 402.77148 L 527.24219 403.45117 L 528.01172 401.98047 L 528.99219 398.18164 L 530.66211 394.85156 L 531.21289 394.25195 L 533.96289 392.86133 L 535.45312 389.68164 L 535.76172 387.21094 L 535.04297 381.06055 L 534.92188 377.4707 L 535.23242 374.61133 L 536.16211 371.26172 L 528.0625 366.12109 L 527.76172 365.5918 L 528.07227 366.12109 L 536.16211 371.26172 L 536.73242 369.2207 L 539.45312 365.33203 L 540.39258 364.69141 L 542.20312 364.02148 L 544.44336 361.04102 L 543.55273 359.33203 L 543.16211 354.91211 L 543.25195 352.58203 L 544.3125 348.86133 L 544.47266 346.00195 L 544.94336 344.99023 L 546.29297 338.3418 L 548.50195 331.68164 L 547.51172 328.26172 L 546.64258 321.85156 L 546.45312 317.31055 L 545.67188 314.46094 L 545.47266 311.99023 L 545.98242 310.18164 L 546.72266 304.75195 L 547.68164 302.14062 L 547.74219 300.38086 L 547.49219 299.8418 L 546.67188 300.45117 L 547.14258 302.66211 L 545.93164 304.38086 L 545.3418 303.92188 L 545.48242 302.79102 L 546.05273 303.01172 L 546.60352 302.52148 L 546.0332 299.08203 L 547.07227 296.57031 L 546.74219 295.57031 L 546.44336 295.27148 L 546.38281 294.65039 L 546.61328 294.24023 L 546.37305 293.70117 L 545.62305 293.49023 L 545.26172 294.21094 L 545.62305 291.69141 L 545.83203 291.30078 L 546.9375 291.62109 L 546.0625 291.69141 L 545.93164 292.76172 L 546.35352 293.16211 L 547.15234 293.38086 L 546.89258 293.74023 L 546.88281 294.41211 L 547.51172 294.44141 L 548.20312 292.87109 L 548.0918 291.74023 L 547.93164 291.54102 L 547.16211 291.60352 L 547.00195 290.8418 L 547.20312 290.00195 L 547.55273 289.33203 L 548.80273 288.36133 L 549.05273 286.54102 L 550.26172 285.39062 L 550.72266 283.58203 L 549.57227 283.32031 L 549.20312 283.4707 L 548.74219 283.24023 L 547.8125 281.55078 L 548.68164 280.26172 L 548.71289 280.65039 L 548.40234 280.78125 L 548.29297 281.10156 L 548.7832 282.8418 L 549.3418 283.13086 L 549.89258 282.75195 L 550.39258 281.88086 L 550.85352 279.55078 L 551.22266 278.95117 L 551.90234 279.70117 L 552.33203 281.00195 L 554.20312 281.25195 L 554.65234 283.18164 L 554.51172 284.28125 L 554.14258 284.43164 L 553.8418 285.86133 L 554.71289 285.87109 L 557.16211 284.61133 L 562.19336 278.87109 L 563.22266 276.54102 L 567.05273 271.35156 L 571.13281 262.52148 L 570.77344 262.11133 L 570.13281 262.13086 L 567.24219 263.01172 L 565.69336 262.37109 L 565.15234 262.03125 L 564.67188 261.32031 L 562.74219 260.40039 L 562.15234 259.88086 L 562.0332 259.46094 L 562.11523 259.36719 L 562.21289 259.70117 L 562.8125 260.2207 L 564.73242 261.14062 L 565.21289 261.86133 L 565.75195 262.20117 L 567.30273 262.8418 L 570.20312 261.95117 L 571.40234 261.33203 L 571.66211 260.81055 L 571.38281 260.0918 L 571.64258 259.00195 L 572.12305 258.50195 L 572.57227 257.37109 L 572.47266 256.69141 L 573.2832 257.06055 L 572.91211 258.10156 L 572.60352 258.53125 L 572.19336 258.66211 L 571.71289 260.06055 L 572.01172 260.52148 L 572.79297 260.37109 L 573.72266 258.3418 L 574.58203 257.19141 L 574.8418 255.42188 L 573.71289 254.80078 L 573.51172 254.12109 L 574.50195 254.28125 L 574.87305 254.95117 L 575.40234 255.30078 L 576.67188 253.21094 L 577.19336 251.24023 L 576.96289 251.00195 L 575.72266 251.00195 L 575.38281 249.8418 L 576.37305 249.68164 L 577.42188 251.50195 L 577.3125 252.60156 L 577.63281 252.62109 L 579.18164 250.41211 L 580.15234 249.52148 L 584.72266 246.58203 L 587.10352 245.82031 L 588.42188 244.03125 L 589.42188 242.00195 L 592.75195 239.12109 L 595.79297 234.54102 L 599.37305 230.96094 L 603.92188 225.83203 L 606.70312 220.87109 L 609.95312 211.92188 L 611.91211 205.54102 L 611.72266 204.48047 L 611.45312 203.98047 L 610.75195 203.61133 L 610.74219 203.13086 L 610.85352 202.58203 L 612.12305 200.86133 L 611.57227 199.64062 L 610.69336 199.41211 L 611.63281 199.40039 L 611.99219 198.80078 L 612.26172 193.62109 L 611.67188 192.61133 L 611.66211 190.63086 L 611.15234 192.13086 L 610.57227 192.87109 L 610.60352 191.99023 L 610.97266 191.54102 L 611.15234 190.60156 L 611.0918 189.96094 L 609.64258 185.57031 L 609.55273 183.17188 L 609.3418 181.65039 L 608.38281 178.96094 L 607.66211 178.42188 L 607.45312 176.74023 L 605.97266 171.36133 L 606.01172 170.61133 L 605.51172 168.82031 L 603.20312 164.08203 L 602.5625 163.14062 L 601.54297 162.32031 L 599.5918 161.46094 L 598.32227 161.42188 L 593.82227 160.50195 L 591.49219 161.23047 L 588.95312 161.4707 L 586.07227 160.95117 L 582.74219 161.27148 L 581.42188 160.77148 L 579.73242 159.02148 L 578.51172 158.61133 L 575.38281 158.62109 L 574.52344 157.87109 L 574.05273 157.11133 L 573.55273 155.75195 L 572.76172 155.08203 L 570.39258 154.16211 L 569.24219 154.13086 L 567.74219 153.31055 L 566.70312 152.32031 L 565.24219 150.32031 L 561.08203 147.24023 L 558.12305 143.43164 L 556.90234 142.82031 L 554.46289 139.91211 L 551.89258 139.19141 L 548.90234 137.08203 L 546.68164 134.79102 L 545.47266 134.5918 L 540.65234 131.5918 L 539.19336 131.07031 L 535.07227 128.89062 L 533.13281 127.39062 L 531.01172 126.27148 L 523.61328 125.48047 L 521.54297 126.14062 L 518.65234 126.57031 L 511.91211 126.79102 L 511.26172 127.60156 L 511.66211 128.26172 L 511.70312 128.88086 L 511.51172 129.02148 L 511.19336 128.42188 L 510.20312 127.57031 L 507.96289 127.06055 L 507.27344 127.29102 L 505.96289 127.17188 L 504.85352 126.8418 L 504.98242 126.53125 L 504.47266 126.02148 L 503.00195 125.15039 L 502.27344 125.03125 L 501.8125 126.4707 L 502.0332 127.19141 L 502.67188 127.7207 L 502.2832 129.25195 L 500.49219 131.52148 L 496.36328 135.49023 L 496.30664 135.49805 L 500.43164 131.53125 L 502.22266 129.26172 L 502.60352 127.73047 L 501.97266 127.19141 L 501.74219 126.4707 L 502.20312 125.04102 L 502.29297 124.62109 L 501.72266 124.51172 L 500.05273 124.89062 L 500.72266 125.36133 L 500.46289 126.26172 L 498.00195 125.60156 L 496.41211 125.69141 L 496.07227 125.64062 L 495.51172 124.88086 L 494.35352 125.07031 L 491.85352 124.49023 L 489.96289 123.17188 L 488.70312 121.87109 L 487.30273 121.8418 L 485.15234 120.46094 L 484.11328 120.35156 L 481.48242 119.30078 L 479.70312 118.92188 L 477.2832 118.8418 L 476.67188 119.07031 L 477.13281 121.48047 L 473.0918 121.05078 L 470.51172 121.98047 L 469.65234 121.65039 L 465.44336 126.62109 L 465.19336 126.32031 L 465.7832 125.81055 L 465.5625 124.98047 L 464.41211 125.29102 L 463.96289 126.10156 L 463.23242 125.98047 L 463.26172 125.26172 L 466.47266 123.51172 L 467.89258 121.64062 L 468.0918 121.19141 L 468.01172 119.56055 L 467.55273 119.44141 L 466.90234 119.57031 L 465.23242 120.49023 L 464.12305 120.61133 L 462.97266 121.31055 L 461.94336 127.64062 L 461.05273 128.78125 L 458.93164 130.36133 L 458.25195 131.57031 L 456.2832 133.27148 L 456.32227 131.83203 L 456.75195 131.66211 L 458.79297 129.51172 L 458.83203 129.18164 L 457.96289 128.95117 L 457.75195 128.61133 L 458.37305 125.0918 L 459.5332 122.74023 L 459.46289 121.9707 L 460.62305 120.48047 L 461.65234 119.57031 L 462.62305 119.38086 L 462.89258 118.15039 L 462.37305 116.26172 L 461.50195 115.45117 L 460.67188 115.48047 L 458.92188 117.16211 L 458.32227 118.19141 L 458.22266 117.53125 L 458.60352 116.64062 L 460.79297 113.91211 L 460.90234 112.96094 L 460.13281 110.56055 L 458.55273 109.89062 L 457.69336 110.33203 L 456.0625 108.58203 L 456.20312 107.37109 L 455.62305 106.58203 L 454.37305 107.18164 L 454.27344 107.55078 L 453.68164 106.9707 L 454.8125 105.44141 L 455.17188 105.23047 L 455.12305 104.31055 L 453.62305 105.42188 L 451.49219 104.83203 L 450.44336 105.08203 L 449.12305 106.51172 L 448.98242 107.11133 L 449.45312 108.11133 L 448.49219 109.04102 L 447.91211 109.18164 L 447.44336 109.06055 L 447.18164 108.73047 L 447.10352 106.02148 L 447.37305 105.03125 L 448.24219 104.11133 L 448.24219 103.53125 L 447.8418 102.51172 L 447.39258 102.51172 L 446.90234 104.05078 L 445.69336 106.0918 L 445.67188 105.54102 L 445.00195 104.8418 L 446.43164 103.14062 L 445.93164 102.45117 L 444.24219 101.92188 L 443.39258 101.96094 L 443.32227 102.90039 L 443.0332 103.39062 L 442.04297 103.35156 L 441.43164 100.42188 L 440.66211 101.78125 L 439.47266 101.66211 L 439.02344 99.820312 L 437.68164 98.841797 L 437.10352 99.371094 L 436.76172 100.12109 L 436.82227 100.66211 L 436.58203 100.90039 L 435.98242 100.90039 L 435.35352 99.28125 L 434.76172 99.900391 L 433.29297 100.39062 L 434.04297 98.560547 L 434.35352 96.980469 L 430.82227 98.220703 L 428.93164 98.082031 L 428.67188 97.710938 L 427.82227 98.210938 L 428.42188 97.261719 L 427.96289 95.582031 L 427.51172 94.931641 L 425.00195 95.191406 L 424.5918 94.751953 L 424.82227 93.421875 L 424.44336 93.191406 L 423.2832 95.541016 L 422.36328 96.060547 L 422.39258 95.470703 L 422.89258 95.162109 L 422.36328 93.021484 L 420.71289 93.800781 L 419.08203 93.091797 L 418.46289 92.070312 L 417.2832 91.421875 L 415.00195 91.162109 L 414.5625 91.351562 L 414.39258 91.771484 L 414.52344 92.970703 L 414.66211 93.261719 L 415.62305 93.751953 L 415.73242 94.130859 L 415.5332 94.691406 L 414.20312 93.490234 L 413.46289 92.101562 L 413.18164 91.951172 L 412.55273 92.140625 L 412.19336 92.921875 L 411.38281 93.501953 L 410.3125 93.662109 L 410.63281 92.990234 L 410.5332 92.421875 L 410.13281 91.970703 L 409.67188 92.041016 L 406.74219 94.130859 L 405.63281 92.990234 L 405.27344 93.070312 L 402.43164 95.550781 L 401.26172 97.361328 L 401.23242 98.041016 L 401.91211 99.431641 L 400.8418 102.53125 L 399.82227 102.42188 L 399.15234 102.04102 L 398.64258 102.33203 L 398.35352 104.76172 L 398.66211 104.9707 L 402.17188 104.51172 L 403.20312 104.83203 L 399.69336 105.3418 L 399.07227 106.35156 L 399.42188 107.10156 L 399.47266 107.8418 L 398.2832 107.25195 L 396.66211 104.91211 L 396.04297 105.37109 L 395.25195 104.88086 L 394.73242 105.3418 L 393.37305 107.60156 L 391.86328 109.29102 L 390.98242 110.64062 L 389.74219 110.79688 L 390.14258 110.48047 L 390.40234 109.96094 L 389.89258 109.5918 L 389.66211 108.8418 L 388.98242 109.24023 L 388.08203 110.8418 L 388.36328 111.07031 L 389.08203 110.64062 L 389.66602 110.80664 L 389.16211 110.87109 L 388.58203 111.2207 L 387.82227 111.27148 L 387.55273 111.54102 L 386.43164 113.10156 L 385.30273 116.29102 L 383.76172 119.29102 L 383.75195 120.69141 L 382.87305 121.88086 L 383.19336 119.41211 L 382.61328 117.99023 L 382.62305 117.11133 L 383.45312 116.08203 L 383.91211 115.01172 L 384.15234 113.51172 L 386.19336 109.49023 L 386.13281 108.74023 L 385.36328 108.67188 L 383.62305 109.18164 L 382.64258 109.77148 L 381.62305 110.78125 L 380.55273 111.19141 L 377.38281 111.61133 L 375.64258 110.55078 L 374.87305 110.35156 L 370.7832 111.31055 L 369.45312 112.21094 L 368.42188 112.38086 L 367.94336 112.35156 L 367.62305 112.07031 L 368.23242 111.48047 L 367.89258 110.92188 L 365.96289 110.28125 L 364.3418 110.19141 L 362.08203 112.51172 L 362.08203 112.95117 L 363.00195 115.05078 L 364.00195 116.31055 L 363.75195 116.60156 L 362.55273 115.74023 L 362.64258 114.95117 L 361.8125 113.75195 L 360.38281 113.02148 L 359.5625 114.21094 L 359.22266 118.41211 L 359.44336 119.0918 L 360.64258 120.13086 L 361.41211 120.37109 L 361.75195 121.01172 L 361.23242 120.52148 L 360.49219 120.37109 L 359.37305 119.62109 L 358.85352 118.49023 L 358.45312 116.16211 L 359.19336 115.61133 L 359.44336 113.5918 L 356.91211 111.14062 L 356.80273 110.69141 L 354.49219 109.51172 L 351.92188 113.73047 L 351.80273 114.25195 L 352.23242 116.94141 L 353.24219 118.08203 L 352.32227 117.46094 L 351.8418 116.82031 L 351.16211 113.85156 L 351.77344 111.48047 L 354.05273 107.66211 L 354.93164 108.19141 L 355.19336 109.31055 L 357.32227 110.35156 L 358.25195 110.21094 L 359.51172 110.52148 L 361.33203 111.04102 L 362.20312 111.56055 L 362.67188 111.43164 L 364.51172 109.5918 L 364.63281 109.12109 L 364.33203 107.48047 L 363.02344 106.13086 L 362.21289 104.53125 L 361.88281 102.91211 L 362.40234 100.33203 L 362.02344 96.53125 L 361.61328 96.320312 L 360.52344 96.261719 L 359.39258 96.541016 L 359.18164 96.951172 L 359.43164 97.621094 L 358.77344 98.341797 L 356.68164 99.351562 L 356.01172 99.871094 L 355.47266 100.87109 L 352.3125 102.71094 L 350.47266 103.52148 L 348.97266 103.87109 L 345.69336 106.21094 L 344.55273 106.78125 L 343.48242 107.20117 L 342.88281 107.08203 L 342.35352 107.35156 L 341.33203 107.36133 L 340.47266 108.36133 L 339.8418 108.56055 L 339.54297 108.20117 L 340.16211 107.70117 L 340.16211 107.04102 L 340.0332 106.58203 L 339.15234 105.92188 L 332.69336 106.98047 L 332.65234 106.40039 L 334.20312 105.81055 L 334.83203 105.83203 L 336.43164 105.11133 L 336.80273 104.57031 L 340.18164 102.99023 L 340.8418 103.14062 L 341.68164 103.93164 L 342.18164 104.11133 L 343.57227 103.94141 L 344.86328 102.83203 L 345.0332 102.30078 L 344.74219 100.71094 L 345.27344 99.970703 L 344.33203 99.912109 L 343.5625 100.25195 L 342.26172 100.37109 L 339.47266 99.691406 L 339.4668 99.6875 L 342.23242 100.36133 L 343.5332 100.24023 L 344.30273 99.900391 L 345.24219 99.960938 L 346.22266 99.841797 L 348.17188 98.03125 L 348.00195 96.230469 L 348.36328 93.832031 L 351.37305 90.380859 L 352.21289 89.730469 L 353.33203 87.861328 L 354.30273 85.640625 L 355.77344 83.960938 L 356.52344 83.060547 L 357.86328 82.990234 L 359.94336 80.011719 L 361.39258 79.490234 L 362.33203 79.582031 L 363.0332 79.121094 L 365.94336 75.621094 L 367.88281 71.900391 L 370.0332 70.490234 L 371.20312 68.390625 L 376.23242 64.332031 L 376.40234 63.601562 L 376.2832 63.011719 L 376.00195 62.78125 L 374.96289 63.201172 L 373.17188 63.351562 L 373.55273 63.021484 L 375.2832 62.591797 L 376.57227 61.630859 L 376.73242 58.300781 L 375.96289 55.650391 L 374.67188 54.800781 L 371.89258 53.861328 L 368.62305 53.941406 L 367.61328 53.591797 L 364.29297 48.591797 L 361.63281 39.650391 L 358.92188 33.601562 L 358.26172 29.730469 L 358.05273 21.841797 L 357.8418 21.441406 L 357.46289 21.541016 L 357.14258 22.021484 L 356.70312 21.710938 L 356.67188 20.130859 L 356.15234 18.941406 L 355.24219 17.720703 L 354.10352 16.511719 L 350.73242 14.091797 L 350.55273 14.421875 L 350.62305 15.710938 L 352.29297 20.511719 L 351.41211 19.150391 L 350.85352 17.691406 L 349.8125 18.271484 L 349.3418 19.191406 L 347.23242 20.332031 L 346.60352 21.990234 L 344.8125 23.541016 L 343.97266 24.740234 L 343.74219 25.890625 L 340.14258 31.681641 L 339.41211 31.871094 L 338.30273 33.171875 L 338.19336 34.990234 L 335.0625 41.490234 L 335.26172 42.03125 L 334.89258 43.03125 L 333.14258 45.332031 L 331.36328 46.431641 L 329.69336 47.931641 L 328.7832 48.412109 L 328.16211 48.421875 L 327.21289 48.251953 L 326.70312 47.751953 L 324.33203 47.921875 L 324.5332 47.050781 L 323.07227 45.751953 L 322.75195 45.720703 L 322.63281 46.140625 L 320.91211 47.150391 L 319.83203 47.271484 L 317.12305 46.332031 L 316.43164 45.390625 L 315.60352 45.681641 L 313.87305 46.851562 L 313.52344 47.611328 L 310.76172 49.390625 L 307.47266 48.640625 L 305.22266 47.861328 L 304.38281 47.150391 L 304.0332 46.251953 L 303.21289 46.021484 L 301.74219 46.082031 L 301.40234 45.111328 L 301.69336 44.931641 L 301.70312 44.121094 L 300.71289 43.820312 L 300.36328 44.03125 L 300.38086 44.048828 L 299.95312 44.332031 L 298.93164 44.271484 L 297.36328 42.582031 L 285.74219 44.912109 L 283.39258 43.800781 L 282.5625 43.041016 L 281.85352 42.851562 L 281.54297 43.021484 L 281.26172 44.130859 L 279.95312 45.582031 L 279.46289 47.261719 L 280.70312 47.890625 L 282.77344 50.390625 L 282.80273 52.671875 L 281.80273 53.541016 L 280.8418 53.681641 L 276.17188 52.300781 L 273.93164 52.001953 L 273.07227 52.341797 L 272.25195 52.351562 L 271.47266 52.070312 L 269.80273 52.460938 L 269.24219 53.060547 L 267.63281 52.810547 L 265.60352 52.332031 L 264.87305 51.880859 L 264.50195 50.890625 L 264.0918 50.78125 L 261.98242 51.912109 L 261.33203 51.451172 L 260.47266 51.560547 L 259.01172 52.662109 L 258.61328 54.060547 L 257.41211 55.541016 L 256.92188 55.791016 L 255.76172 55.900391 L 253.79297 55.511719 L 250.46289 57.130859 L 249.92188 58.650391 L 248.04297 58.621094 L 245.40234 57.611328 L 243.99219 59.240234 L 242.20312 59.601562 L 242.74219 61.412109 L 241.93164 62.460938 L 239.22266 62.230469 L 238.75195 63.041016 L 237.38281 63.751953 L 236.46289 63.470703 L 236.01172 63.070312 L 236.0332 62.591797 L 235.60352 62.011719 L 234.87695 61.701172 L 234.87305 61.662109 L 230.64258 60.621094 L 227.98242 57.880859 L 226.52344 55.960938 L 224.37305 55.220703 L 223.91211 54.720703 L 224.57227 53.550781 L 222.76172 53.261719 L 222.64258 52.521484 L 223.10352 47.371094 L 222.97266 46.691406 L 222.07227 46.490234 L 220.50195 45.460938 L 220.51172 44.060547 L 220.00195 42.300781 L 219.02344 40.431641 L 219.11328 37.761719 L 219.42188 35.191406 L 220.32227 32.421875 L 221.79297 30.011719 L 221.73242 27.841797 L 221.46289 27.451172 L 222.18164 25.951172 L 224.0625 24.541016 L 225.57227 21.621094 L 225.37305 20.070312 L 223.0332 16.650391 L 223.04297 15.501953 L 223.92188 14.070312 L 222.10352 12.970703 L 219.75195 12.162109 L 218.13281 12.380859 L 216.52344 11.970703 L 216.46289 11.140625 L 217.71289 10.441406 L 218.43164 9.0605469 L 219.10352 4.1621094 L 218.62305 2.7910156 L 217.58203 1.9902344 L 217.05273 0.68164062 L 215.68164 0.26171875 z M 367.72266 47.791016 L 366.8418 47.960938 L 366.58203 48.791016 L 367.3418 49.291016 L 368.5918 48.841797 L 368.58203 48.111328 L 367.72266 47.791016 z M 369.01172 49.041016 L 367.35352 49.490234 L 367.12305 49.900391 L 367.05273 50.78125 L 368.15234 52.640625 L 368.60352 52.970703 L 369.2832 52.800781 L 370.27344 51.701172 L 369.44336 49.431641 L 369.01172 49.041016 z M 303.2832 54.451172 L 306.67188 54.820312 L 306.70312 54.832031 L 303.3125 54.460938 L 302.23242 54.751953 L 301.0625 54.730469 L 301.05664 54.720703 L 302.20312 54.740234 L 303.2832 54.451172 z M 311.08008 58.443359 L 312.24219 58.560547 L 312.25195 58.568359 L 311.08203 58.451172 L 311.08008 58.443359 z M 317.67188 59.951172 L 317.68555 59.962891 L 316.76172 60.101562 L 316.38281 60.521484 L 315.05273 60.662109 L 314.29102 60.416016 L 315.02344 60.650391 L 316.35352 60.511719 L 316.73242 60.091797 L 317.67188 59.951172 z M 321.19336 62.582031 L 321.19727 62.59375 L 320.54297 62.621094 L 320.53125 62.611328 L 321.19336 62.582031 z M 375.72266 65.78125 L 374.47266 65.880859 L 373.75195 66.921875 L 373.75195 67.480469 L 374.5332 67.710938 L 375.80273 66.640625 L 375.90234 66.130859 L 375.72266 65.78125 z M 374.75195 67.861328 L 374.3125 68.501953 L 373.85352 68.611328 L 372.60352 68.371094 L 371.72266 68.521484 L 370.61328 69.621094 L 370.69336 70.332031 L 371.0918 70.582031 L 372.8418 70.390625 L 373.83203 69.890625 L 374.80273 68.451172 L 374.75195 67.861328 z M 373.73242 72.03125 L 371.2832 72.951172 L 370.11328 74.261719 L 369.96289 74.861328 L 370.13281 76.521484 L 370.95312 76.820312 L 372.60352 75.710938 L 374.55273 73.720703 L 374.51172 72.832031 L 373.98242 72.150391 L 373.73242 72.03125 z M 369.02344 72.541016 L 368.13281 73.771484 L 367.42188 77.720703 L 366.54297 78.681641 L 366.8418 79.162109 L 368.0332 79.470703 L 368.61328 78.621094 L 369.64258 78.220703 L 369.96289 77.341797 L 369.36328 75.470703 L 369.38281 72.990234 L 369.3125 72.671875 L 369.02344 72.541016 z M 379.19336 76.931641 L 374.38281 77.53125 L 372.19336 78.820312 L 370.30273 78.78125 L 368.79297 79.201172 L 368.7832 80.441406 L 369.16211 81.53125 L 369.45312 81.791016 L 370.24219 81.951172 L 372.69336 81.871094 L 373.72266 82.121094 L 375.02344 83.261719 L 376.12305 82.761719 L 377.90234 80.28125 L 380.46289 78.890625 L 380.64258 77.871094 L 379.96289 77.191406 L 379.19336 76.931641 z M 365.68164 78.880859 L 364.87305 79.460938 L 364.64258 79.751953 L 364.69336 80.130859 L 365.65234 81.771484 L 366.49219 82.480469 L 367.0918 82.630859 L 368.0625 82.240234 L 367.82227 80.150391 L 367.5332 79.720703 L 365.68164 78.880859 z M 380.37305 80.921875 L 378.51172 82.121094 L 377.22266 83.130859 L 377.42188 83.662109 L 379.68164 84.550781 L 380.85352 84.230469 L 383.70312 83.951172 L 384.58203 83.181641 L 384.5332 82.560547 L 384.00195 81.570312 L 382.35352 80.951172 L 380.37305 80.921875 z M 362.39258 81.070312 L 361.35352 81.582031 L 360.32227 82.621094 L 360.50195 82.832031 L 361.0918 82.820312 L 363.45312 82.121094 L 363.87305 82.021484 L 364.02344 81.810547 L 363.87305 81.582031 L 363.43164 81.240234 L 362.39258 81.070312 z M 364.01172 82.220703 L 361.65234 83.121094 L 359.73242 83.521484 L 359.0918 84.441406 L 358.88281 85.601562 L 360.42188 86.291016 L 361.0332 86.251953 L 361.5332 86.511719 L 363.22266 85.060547 L 364.29297 84.720703 L 366.22266 83.111328 L 366.13281 82.980469 L 365.33203 82.300781 L 364.01172 82.220703 z M 369.79297 83.710938 L 368.47266 83.841797 L 367.13281 84.332031 L 366.17188 84.900391 L 364.8418 86.230469 L 363.95312 88.201172 L 363.5918 89.880859 L 364.49219 92.041016 L 365.76172 92.261719 L 366.22266 92.681641 L 365.67188 92.740234 L 363.91211 92.140625 L 363.5625 91.390625 L 362.83203 92.150391 L 362.49219 97.230469 L 362.67188 98.28125 L 363.61328 98.990234 L 364.83203 99.121094 L 366.13281 98.691406 L 366.05273 99.251953 L 365.12305 100.00195 L 363.36328 99.640625 L 362.74219 100.02148 L 362.22266 102.77148 L 362.43164 104.55078 L 363.49219 106.15039 L 364.60352 107.17188 L 364.83203 107.58203 L 365.07227 109.43164 L 365.88281 110.04102 L 369.08203 110.61133 L 373.27344 109.35156 L 374.07227 108.63086 L 377.8418 110.27148 L 378.55273 109.86133 L 378.89258 109.05078 L 378.47266 107.82031 L 378.70312 107.54102 L 379.3125 109.07031 L 380.0332 109.68164 L 381.87305 108.49023 L 382.52344 107.36133 L 384.54297 107.67188 L 387.93164 107.15039 L 392.45312 105.19141 L 392.94336 104.74023 L 394.33203 101.24023 L 396.3125 98.662109 L 396.08203 97.470703 L 396.43164 96.78125 L 397.72266 96.101562 L 398.58203 92.800781 L 398.94336 90.150391 L 399.62305 88.650391 L 400.32227 87.912109 L 400.37305 86.681641 L 399.74219 86.210938 L 393.26172 85.361328 L 390.46289 84.541016 L 387.57227 84.251953 L 385.41211 84.621094 L 384.27344 85.240234 L 384.16211 85.541016 L 380.46289 86.001953 L 373.25195 84.230469 L 369.79297 83.710938 z M 357.75195 84.050781 L 356.30273 84.591797 L 355.57227 85.251953 L 354.8125 86.791016 L 353.62305 88.501953 L 353.07227 88.861328 L 352.95312 89.470703 L 353.22266 89.662109 L 355.43164 88.201172 L 357.15234 86.541016 L 357.55273 85.541016 L 357.75195 84.050781 z M 330.94336 84.880859 L 330.95898 84.896484 L 330.19336 85.251953 L 329.37305 85.060547 L 329.37109 85.058594 L 330.16211 85.240234 L 330.94336 84.880859 z M 363.19336 85.650391 L 360.83203 87.490234 L 360.8125 87.681641 L 361.70312 87.751953 L 362.75195 87.582031 L 363.00195 87.240234 L 363.23242 86.611328 L 363.19336 85.650391 z M 358.61328 86.511719 L 357.2832 88.320312 L 356.96289 90.361328 L 357.50195 90.560547 L 358.57227 88.320312 L 360.12305 87.681641 L 360.13281 87.431641 L 358.8418 86.550781 L 358.61328 86.511719 z M 362.0918 87.890625 L 361.21289 88.101562 L 359.5625 91.060547 L 362.49219 89.662109 L 363.07227 88.951172 L 362.80273 88.082031 L 362.0918 87.890625 z M 360.83203 87.990234 L 358.35352 89.451172 L 358.10352 89.951172 L 358.18164 90.710938 L 359.12305 90.621094 L 359.93164 89.990234 L 360.83203 87.990234 z M 356.21289 90.341797 L 353.3418 90.541016 L 351.05273 92.011719 L 349.79297 93.501953 L 348.93164 96.082031 L 349.13281 98.421875 L 348.98242 98.921875 L 348.08203 99.78125 L 345.75195 100.26172 L 345.50195 100.4707 L 345.5918 102.26172 L 344.49219 104.51172 L 345.24219 105.02148 L 346.82227 104.66211 L 351.76172 101.35156 L 352.54297 100.63086 L 353.88281 98.601562 L 354.98242 97.931641 L 355.83203 94.890625 L 356.93164 92.701172 L 356.21289 90.341797 z M 361.52344 90.921875 L 360.80273 91.201172 L 358.21289 92.890625 L 357.17188 95.701172 L 356.98242 96.630859 L 357.12305 97.041016 L 358.87305 95.480469 L 360.49219 93.291016 L 362.05273 92.851562 L 362.21289 91.060547 L 361.52344 90.921875 z M 334.23047 91.537109 L 335.15234 91.720703 L 335.15625 91.724609 L 334.23242 91.541016 L 334.23047 91.537109 z M 360.58203 93.390625 L 359.80273 94.890625 L 359.87305 95.121094 L 360.32227 95.240234 L 361.65234 94.761719 L 361.77344 93.412109 L 360.58203 93.390625 z M 356.13281 95.181641 L 355.89258 95.480469 L 355.8418 96.78125 L 355.42188 98.021484 L 353.63281 99.640625 L 353.0918 100.58203 L 353.08203 100.93164 L 353.26172 100.96094 L 354.94336 100.51172 L 355.5625 99.861328 L 356.45312 97.130859 L 356.45312 95.621094 L 356.13281 95.181641 z M 359.73242 95.591797 L 358.83203 95.740234 L 357.10352 97.412109 L 356.63281 98.041016 L 356.36328 98.871094 L 356.52344 99.050781 L 358.21289 98.210938 L 359.00195 97.501953 L 359.11328 96.380859 L 360.05273 96.070312 L 360.45312 95.621094 L 359.73242 95.591797 z M 429.99219 95.771484 L 428.97266 96.681641 L 428.7832 97.441406 L 429.16211 97.970703 L 430.47266 97.671875 L 430.24219 95.921875 L 429.99219 95.771484 z M 401.0625 98.78125 L 399.72266 98.791016 L 398.85352 100.04102 L 399.67188 100.83203 L 400.70312 101.02148 L 401.15234 100.56055 L 401.25195 99.970703 L 401.0625 98.78125 z M 443.13281 99.611328 L 442.18164 103.19141 L 442.39258 103.24023 L 443.05273 102.99023 L 443.46289 99.931641 L 443.43164 99.701172 L 443.13281 99.611328 z M 454.17188 101.66211 L 453.33203 101.69141 L 452.5332 102.81055 L 452.61328 103.41211 L 453.05273 103.87109 L 454.76172 102.78125 L 454.95312 102.42188 L 454.85352 102.08203 L 454.17188 101.66211 z M 340.54297 103.26172 L 336.98242 104.86133 L 336.55273 105.26172 L 336.62305 105.61133 L 337.17188 105.80078 L 339.67188 104.89062 L 341.07227 104.16211 L 341.08203 103.96094 L 340.54297 103.26172 z M 343.36328 104.45117 L 341.00195 105.33203 L 340.40234 106.32031 L 340.60352 106.62109 L 340.5625 107.65039 L 341.15234 106.92188 L 343.69336 106.51172 L 344.72266 106.04102 L 345.01172 105.69141 L 344.14258 104.83203 L 343.36328 104.45117 z M 457.38281 106.33203 L 456.32227 107.2207 L 456.26172 107.75195 L 456.55273 108.05078 L 457.82227 107.69141 L 458.22266 107.86133 L 458.36328 107.25195 L 457.86328 106.40039 L 457.38281 106.33203 z M 391.91211 106.57031 L 390.8418 106.90039 L 389.80273 108.62109 L 390.14258 109.68164 L 390.98242 110.03125 L 391.3418 109.65039 L 392.08203 107.41211 L 392.10352 106.67188 L 391.91211 106.57031 z M 433.66211 109.99023 L 433.66602 109.99414 L 432.70312 110.15039 L 432.70117 110.14648 L 433.66211 109.99023 z M 358.3418 110.38086 L 357.0625 110.39062 L 357.0625 111.00195 L 358.74219 112.74023 L 359.49219 113.02148 L 360.18164 112.56055 L 361.0625 113.08203 L 361.71289 113.19141 L 361.40234 111.70117 L 358.3418 110.38086 z M 273.57227 115.68164 L 273.57422 115.68945 L 272.22266 116.03125 L 271.37305 116.64062 L 271.34766 116.62891 L 272.18164 116.03125 L 273.57227 115.68164 z M 461.00195 124.15039 L 460.45312 124.3418 L 459.54297 125.58203 L 459.41211 126.24023 L 459.82227 127.31055 L 459.29297 128.8418 L 459.35352 129.63086 L 460.0332 128.44141 L 460.83203 127.8418 L 461.05273 126.50195 L 461.00195 124.15039 z M 492.18164 135.80078 L 492.22656 135.81055 L 489.32227 139.20117 L 489.36328 140.99023 L 488.48242 142.82031 L 486.5918 144.67188 L 485.77344 146.65039 L 485.13281 146.82031 L 484.36328 147.87109 L 484.71289 149.79102 L 485.94336 150.63086 L 486.32227 151.90039 L 486.04297 153.37109 L 484.90234 156.24023 L 486.48242 159.04102 L 487.0332 162.02148 L 486.93164 164.45117 L 486.72266 165.00195 L 482.62305 169.43164 L 482.45312 171.91211 L 482.5625 174.02148 L 483.07227 176.32031 L 484.85352 178.35156 L 486.46289 179.26172 L 486.63281 179.76172 L 486.76172 180.61133 L 486.37305 182.81055 L 486.08203 183.25195 L 485.96289 184.46094 L 485.46289 185.92188 L 484.25195 187.23047 L 481.97266 187.52148 L 481.95898 187.51562 L 484.20312 187.23047 L 485.41211 185.92188 L 485.91211 184.46094 L 486.0332 183.25195 L 486.32227 182.81055 L 486.71289 180.61133 L 486.58203 179.77148 L 486.41211 179.27148 L 484.80273 178.36133 L 483.02344 176.32031 L 482.51172 174.02148 L 482.39258 171.91211 L 482.5625 169.43164 L 486.66211 165.01172 L 486.87305 164.46094 L 486.98242 162.03125 L 486.43164 159.05078 L 484.85352 156.24023 L 485.99219 153.37109 L 486.27344 151.91211 L 485.89258 150.63086 L 484.66211 149.80078 L 484.30273 147.88086 L 485.07227 146.83203 L 485.71289 146.66211 L 486.5332 144.68164 L 488.42188 142.83203 L 489.30273 141.00195 L 489.26172 139.20117 L 492.18164 135.80078 z M 409.10352 153.42188 L 411.42578 153.64844 L 411.42188 153.65039 L 409.09961 153.42383 L 409.10352 153.42188 z M 399.96289 162.31055 L 399.98242 162.3125 L 398.0625 162.83203 L 395.44336 164.68164 L 394.91211 165.32031 L 397.20312 166.13086 L 399.07227 165.88086 L 400.36328 166.00195 L 401.38281 167.66211 L 401.77344 167.9707 L 402.64258 168.11133 L 403.90234 169.28125 L 403.87305 169.92188 L 403.50195 170.58203 L 403.46289 170.60156 L 403.83203 169.93164 L 403.87305 169.30078 L 402.61328 168.13086 L 401.74219 167.99023 L 401.35352 167.68164 L 400.33203 166.02148 L 399.04297 165.90039 L 397.17188 166.14062 L 394.88281 165.33203 L 394.85742 165.32812 L 395.38281 164.69141 L 398.00195 162.8418 L 399.96289 162.31055 z M 405.96289 163.45117 L 405.98242 163.45508 L 405.07227 163.95117 L 405.04102 163.94922 L 405.96289 163.45117 z M 401.80469 171.03906 L 401.52344 171.31055 L 401.61328 172.71094 L 402.63281 174.05078 L 401.70312 176.80078 L 401.0625 177.28125 L 401.03906 177.28906 L 401.66211 176.82031 L 402.58203 174.07031 L 401.57227 172.73047 L 401.48242 171.32031 L 401.77344 171.04102 L 401.80469 171.03906 z M 399.59766 177.75 L 399.35352 178.20117 L 399.64258 179.40039 L 399.45312 180.74023 L 399.41406 180.74414 L 399.60352 179.42188 L 399.3125 178.2207 L 399.5625 177.76172 L 399.59766 177.75 z M 398.14062 180.9082 L 396.65234 182.23047 L 395.79297 183.50195 L 395.94336 185.01172 L 395.70312 185.51172 L 395.66211 185.53125 L 393.20312 186.7207 L 389.79297 187.86133 L 387.32227 189.64062 L 387.13281 189.99023 L 387.5625 192.17188 L 387.62305 194.8418 L 386.33203 196.94141 L 384.92188 198.63086 L 384.7832 199.20117 L 384.94336 200.08203 L 385.54297 201.03125 L 387.21289 202.77148 L 387.95312 203.0918 L 388.10352 203.39062 L 387.44336 207.43164 L 385.68164 212.58203 L 385.54102 212.68555 L 385.65234 212.60156 L 387.41211 207.45117 L 388.07227 203.41211 L 387.92188 203.11133 L 387.17188 202.79102 L 385.50195 201.05078 L 384.91211 200.0918 L 384.74219 199.21094 L 384.89258 198.64062 L 386.30273 196.96094 L 387.58203 194.86133 L 387.52344 192.19141 L 387.0918 190.00195 L 387.2832 189.65039 L 389.75195 187.87109 L 393.16211 186.73047 L 395.66211 185.53125 L 395.90234 185.03125 L 395.75195 183.52148 L 396.60352 182.25195 L 398.11328 180.91211 L 398.14062 180.9082 z M 471.55078 186.40625 L 470.5625 187.00195 L 469.44336 187.26172 L 469.44141 187.25781 L 470.50195 187.01172 L 471.51172 186.41211 L 471.55078 186.40625 z M 469.15234 186.9707 L 469.15625 186.97656 L 468.37305 187.20117 L 467.87305 187.42188 L 465.97266 189.3418 L 465.97266 189.80078 L 465.3418 190.67188 L 463.33203 192.67188 L 460.99219 193.58203 L 458.13281 196.15039 L 456.79297 196.67188 L 455.74219 196.71094 L 454.04297 198.24023 L 452.97266 198.61133 L 450.36328 198.92188 L 447.64258 199.68164 L 445.51172 201.63086 L 444.5332 204.61133 L 444.14258 207.58203 L 443.51172 209.90039 L 442.07227 212.64062 L 441.77344 212.85156 L 441.43164 213.68164 L 441.30273 215.19141 L 440.10352 217.67188 L 438.40234 219.07031 L 437.67188 221.07031 L 438.37305 223.01172 L 438.8418 226.20117 L 440.57227 229.26172 L 440.54297 229.77148 L 439.7832 231.17188 L 439.65234 237.53125 L 438.50195 239.98047 L 438.24219 241.04102 L 438.19336 242.96094 L 438.12305 242.92578 L 438.17188 241.04102 L 438.43164 239.98047 L 439.58203 237.53125 L 439.71289 231.17188 L 440.47266 229.77148 L 440.51172 229.25195 L 438.7832 226.19141 L 438.3125 223.01172 L 437.60352 221.07031 L 438.33203 219.07031 L 440.0332 217.67188 L 441.23242 215.19141 L 441.36328 213.67188 L 441.70312 212.85156 L 442.00195 212.63086 L 443.45312 209.89062 L 444.08203 207.57031 L 444.47266 204.60156 L 445.45312 201.63086 L 447.58203 199.68164 L 450.30273 198.92188 L 452.91211 198.60156 L 453.99219 198.24023 L 455.69336 196.71094 L 456.74219 196.67188 L 458.07227 196.14062 L 460.94336 193.58203 L 463.2832 192.67188 L 465.29297 190.67188 L 465.92188 189.80078 L 465.91211 189.3418 L 467.8125 187.43164 L 468.3125 187.21094 L 469.15234 186.9707 z M 481.26172 187.24023 L 481.26758 187.24219 L 480.49219 187.28125 L 478.05273 188.14062 L 477.54297 188.17383 L 478.00195 188.14062 L 480.43164 187.28125 L 481.26172 187.24023 z M 412.52344 195.21094 L 412.55664 195.2168 L 412.16211 195.4707 L 412.14062 195.45703 L 412.52344 195.21094 z M 415.36328 199.23047 L 415.36719 199.23438 L 414.54297 199.30078 L 414.54102 199.29688 L 415.36328 199.23047 z M 427.96289 204.9707 L 427.98828 204.98828 L 423.75195 205.92188 L 421.61328 207.26172 L 421.58594 207.22461 L 423.69336 205.91211 L 427.96289 204.9707 z M 384.57812 213.4082 L 382.89258 216.62109 L 382.71289 217.61133 L 381.77344 219.15039 L 381.76562 219.16016 L 382.69336 217.64062 L 382.87305 216.65039 L 384.57227 213.41211 L 384.57812 213.4082 z M 540.71289 214.88086 L 542.20312 215.44141 L 543.0332 216.88086 L 544.38281 217.69141 L 546.74219 218.46094 L 549.73242 218.86133 L 551.3125 220.01172 L 551.85352 221.66211 L 552.24219 221.92188 L 552.65625 221.77734 L 552.63281 221.92188 L 552.20312 222.07031 L 551.8125 221.80078 L 551.27344 220.15039 L 549.69336 219.00195 L 546.70312 218.60156 L 544.3418 217.82031 L 542.98242 217.01172 L 542.15234 215.57031 L 540.66211 215.01172 L 540.07227 215.11133 L 537.54297 216.57031 L 535.89844 217.00977 L 535.94336 216.89062 L 537.5918 216.45117 L 540.12305 214.99023 L 540.71289 214.88086 z M 509.5918 217.71094 L 510.49219 218.11133 L 511.65234 217.85156 L 513.85352 218.14062 L 516.66211 219.52148 L 517.10352 220.03125 L 517.04297 222.76172 L 517.76172 224.70117 L 519.97266 225.61133 L 520.23242 227.61133 L 520.18945 227.68945 L 519.92188 225.7207 L 517.71289 224.81055 L 516.99219 222.87109 L 517.05273 220.14062 L 516.61328 219.63086 L 513.79297 218.24023 L 511.5918 217.95117 L 510.43164 218.2207 L 509.54883 217.82227 L 509.5918 217.71094 z M 257.33984 218.35156 L 257.92188 218.77148 L 257.93164 218.78125 L 257.33984 218.35156 z M 535.16797 218.94141 L 535.12305 219.06055 L 532.88281 219.51172 L 532.66406 219.70117 L 532.65234 219.64062 L 532.94336 219.39062 L 535.16797 218.94141 z M 509.08984 218.95312 L 509.08203 218.9707 L 507.58203 221.28125 L 506.5332 221.94141 L 505.74219 221.76172 L 503.80664 222.13086 L 503.80273 222.04102 L 505.80273 221.66211 L 506.5918 221.8418 L 507.64258 221.17188 L 509.08984 218.95312 z M 381.4082 219.57617 L 381.04297 220.00195 L 381.03711 220.00391 L 381.4082 219.57617 z M 554.39258 219.58203 L 554.8418 219.90039 L 554.86328 220.52148 L 554.82031 220.58594 L 554.80273 220.04102 L 554.35352 219.7207 L 553.35352 219.73047 L 552.94336 220.15039 L 552.96289 220.03125 L 553.39258 219.5918 L 554.39258 219.58203 z M 378.61523 221.0957 L 377.5918 223.00195 L 376.38281 224.68164 L 376.35742 224.70508 L 377.5625 223.03125 L 378.5918 221.11133 L 378.61523 221.0957 z M 554.27344 221.45117 L 554.70312 222.24023 L 555.20312 222.61133 L 557.3125 223.4707 L 557.32227 224.41211 L 558.54297 227.45117 L 559.08203 228.85156 L 560.10352 229.14062 L 560.55273 229.05078 L 561.97266 229.83203 L 562.17188 230.56055 L 562.11719 230.6543 L 561.93164 229.99023 L 560.50195 229.20117 L 560.05273 229.29102 L 559.0332 229.00195 L 558.49219 227.60156 L 557.27344 224.55078 L 557.25195 223.61133 L 555.15234 222.75195 L 554.65234 222.38086 L 554.20312 221.55078 L 554.27344 221.45117 z M 532.69336 221.63477 L 532.67188 221.71094 L 531.57227 222.95117 L 529.18164 223.9707 L 528.55273 223.92188 L 527.77344 223.39062 L 527.02344 223.55078 L 526.5625 224.35352 L 526.57227 224.31055 L 527.07227 223.44141 L 527.83203 223.27148 L 528.60352 223.80078 L 529.24219 223.86133 L 531.63281 222.83203 L 532.69336 221.63477 z M 503.85156 224.5 L 503.85352 224.54102 L 501.99219 226.35156 L 501.68164 226.30078 L 501.0625 225.67188 L 498.89258 225.66211 L 498.08203 226.64062 L 497.3125 227.00195 L 494.58203 227.3418 L 493.07227 228.68164 L 492.25195 229.90039 L 490.55273 230.00195 L 489.08203 230.64062 L 486.08203 230.75195 L 485.26172 230.4707 L 485.07227 230.18164 L 485.20312 229.53125 L 483.49219 228.54102 L 482.16211 228.16211 L 480.77344 228.70117 L 478.65234 229.13086 L 478.33203 228.95117 L 477.92188 228.02148 L 476.42188 227.56055 L 474.47266 227.58203 L 471.25781 229.21875 L 471.26172 229.14062 L 474.50195 227.49023 L 476.45312 227.4707 L 477.95312 227.93164 L 478.36328 228.86133 L 478.68164 229.04102 L 480.8125 228.61133 L 482.20312 228.06055 L 483.5332 228.45117 L 485.24219 229.43164 L 485.11328 230.0918 L 485.30273 230.37109 L 486.12305 230.65039 L 489.12305 230.54102 L 490.60352 229.90039 L 492.30273 229.80078 L 493.12305 228.58203 L 494.63281 227.24023 L 497.36328 226.90039 L 498.13281 226.54102 L 498.95312 225.56055 L 501.11328 225.57031 L 501.73242 226.19141 L 502.05273 226.24023 L 503.85156 224.5 z M 375.19336 225.78125 L 374.04297 227.36133 L 372.91211 231.81055 L 371.29297 235.50195 L 372.89258 231.8418 L 374.02344 227.38086 L 375.17188 225.80078 L 375.19336 225.78125 z M 266.49219 225.99023 L 266.49609 225.99219 L 265.68164 226.16211 L 265.67773 226.16016 L 266.49219 225.99023 z M 525.77539 227.88867 L 525.75195 228.00195 L 522.88281 228.88086 L 522.0625 229.80078 L 521.10352 230.02148 L 519.27344 229.40039 L 519.33008 229.29688 L 521.15234 229.91211 L 522.11328 229.68164 L 522.93164 228.76172 L 525.77539 227.88867 z M 561.50977 231.78906 L 561.72266 233.85156 L 562.99219 236.35156 L 564.98242 238.30078 L 565.73242 239.45117 L 565.65234 242.56055 L 565.61523 242.65234 L 565.69336 239.61133 L 564.94336 238.46094 L 562.95312 236.51172 L 561.67188 234.01172 L 561.46289 231.87109 L 561.50977 231.78906 z M 473.06445 238.99414 L 473.00195 239.23047 L 472.2832 240.0918 L 469.33203 245.14062 L 466.36328 247.56055 L 465.01172 247.98047 L 463.5332 247.45117 L 462.20312 247.28125 L 459.99219 248.03125 L 458.82227 248.92188 L 458.15234 249.79102 L 457.01172 250.16211 L 456.26172 251.61133 L 455.93164 251.82031 L 453.82227 251.64062 L 452.02344 252.16211 L 447.8418 250.30078 L 446.08203 247.81055 L 445.55273 245.60156 L 444.89258 244.56055 L 443.45312 243.2207 L 441.12305 243.24023 L 440.43164 243.89062 L 440.21289 244.87109 L 439.65234 245.3418 L 435.83203 247.36133 L 432.62305 249.98047 L 432.45703 250.30078 L 432.44336 250.28125 L 432.63281 249.91211 L 435.8418 247.29102 L 439.66211 245.27148 L 440.22266 244.80078 L 440.44336 243.82031 L 441.13281 243.17188 L 443.46289 243.15039 L 444.90234 244.49023 L 445.5625 245.53125 L 446.0918 247.74023 L 447.86328 250.23047 L 452.04297 252.08203 L 453.8418 251.56055 L 455.95312 251.74023 L 456.2832 251.53125 L 457.0332 250.08203 L 458.17188 249.70117 L 458.8418 248.83203 L 460.01172 247.94141 L 462.21289 247.19141 L 463.55273 247.36133 L 465.0332 247.89062 L 466.38281 247.4707 L 469.35352 245.05078 L 472.30273 240.00195 L 473.02344 239.14062 L 473.06445 238.99414 z M 434.42188 240.74023 L 434.43945 240.74609 L 432.70312 240.95117 L 432.6582 240.93945 L 434.42188 240.74023 z M 564.98438 244.27734 L 564.91211 245.06055 L 565.67188 247.81055 L 565.60938 247.93164 L 564.86328 245.23047 L 564.95312 244.35156 L 564.98438 244.27734 z M 558.39258 251.06641 L 558.41211 251.82031 L 559.37305 253.42188 L 560.46289 254.0918 L 560.98242 255.58203 L 562.41211 257.0918 L 562.5625 257.48047 L 562.43164 258.90039 L 562.38281 258.95508 L 562.50195 257.65039 L 562.35352 257.26172 L 560.92188 255.75195 L 560.40234 254.26172 L 559.30273 253.60156 L 558.35352 252.00195 L 558.33203 251.23047 L 558.39258 251.06641 z M 433.69922 252.11719 L 433.72266 252.15039 L 433.37305 252.53125 L 432.36328 252.80078 L 431.46289 253.41211 L 429.94336 256.89062 L 428.93164 257.62109 L 428.44141 258.75977 L 428.43164 258.7207 L 428.93164 257.56055 L 429.94336 256.8418 L 431.46289 253.35156 L 432.36328 252.74023 L 433.37305 252.4707 L 433.69922 252.11719 z M 436.02148 264.02148 L 436.02344 264.07031 L 435.46289 264.52148 L 433.42188 265.3418 L 433.01172 266.28125 L 433.00195 266.23047 L 433.43164 265.27148 L 435.47266 264.46094 L 436.02148 264.02148 z M 436.23828 268.33789 L 436.26172 268.39062 L 435.30273 269.11133 L 434.16211 269.53125 L 432.21289 271.20117 L 432.02344 272.05078 L 431.96484 274.89648 L 431.96289 274.89062 L 432.01172 271.9707 L 432.20312 271.12109 L 434.15234 269.45117 L 435.30273 269.03125 L 436.23828 268.33789 z M 434.91992 278.79297 L 434.92188 278.86133 L 433.57617 281.21875 L 433.57227 281.15039 L 434.91992 278.79297 z M 551.40234 283.57031 L 551.77344 284.30078 L 551.61328 284.94141 L 550.55273 285.98047 L 549.8125 286.39062 L 550.04297 287.5918 L 552.93164 285.29102 L 552.98242 284.76172 L 552.16211 283.71094 L 551.40234 283.57031 z M 436.33789 284.93359 L 436.3418 285.00195 L 434.91211 286.06055 L 434.44531 288.50977 L 434.44336 288.50195 L 434.92188 285.98047 L 436.33789 284.93359 z M 436.16797 289.75 L 436.17188 289.75195 L 436.11328 290.69141 L 435.88281 291.07031 L 434.29297 292.10156 L 433.10156 295.89844 L 433.10352 295.85156 L 434.29297 292.02148 L 435.88281 290.99023 L 436.11328 290.61133 L 436.16797 289.75 z M 471.83984 306.92969 L 471.8418 306.93164 L 470.56055 309.65625 L 470.5625 309.64062 L 471.83984 306.92969 z M 438.61133 307.51562 L 438.61328 307.54102 L 437.90234 308.96094 L 437.91211 308.89062 L 438.61133 307.51562 z M 470.48633 310.09375 L 470.41406 310.54492 L 470.41211 310.53125 L 470.48633 310.09375 z M 438.69922 312.60156 L 438.70312 312.62109 L 438.45312 313.39062 L 436.99023 315.33789 L 436.98242 315.30078 L 438.46289 313.33203 L 438.69922 312.60156 z M 437.47656 317.74609 L 437.48242 317.77148 L 436.07227 321.15625 L 436.0625 321.15039 L 437.47656 317.74609 z M 509.83398 325.54297 L 509.8418 325.55078 L 510.28125 329.48828 L 510.27344 329.49023 L 509.83398 325.54297 z M 524.8125 330.47461 L 525.42188 330.64062 L 525.41211 330.64062 L 524.8125 330.47461 z M 531.98242 333.53125 L 531.99219 333.53125 L 532.77344 334.55078 L 533.19336 335.7207 L 531.72266 338.80078 L 526.76172 343.02148 L 526.60352 345.67188 L 526.75195 343.02148 L 531.71289 338.80078 L 533.18164 335.7207 L 532.76172 334.55078 L 531.98242 333.53125 z M 523.66211 347.58203 L 523.67188 347.58203 L 522.85352 348.46094 L 522.0332 351.76172 L 521.50195 356.16211 L 521.71875 356.4082 L 521.71289 356.41211 L 521.49219 356.16211 L 522.02344 351.76172 L 522.8418 348.46094 L 523.66211 347.58203 z M 522.91211 355.54102 L 523.21289 356.19141 L 522.9082 355.54297 L 522.91211 355.54102 z M 523.48047 356.76953 L 523.48242 356.77148 L 523.26172 358.27148 L 523.48047 356.76953 z M 367.43164 395.16211 L 368.18164 395.30078 L 369.91211 396.85156 L 372.46289 396.93164 L 376.75195 397.89062 L 378.0625 397.61719 L 376.74219 397.90039 L 372.45312 396.94141 L 369.90234 396.86133 L 368.17188 395.31055 L 367.42188 395.17188 L 365.92383 395.78125 L 365.93164 395.77148 L 367.43164 395.16211 z M 364.5 397.46094 L 364.49219 397.4707 L 362.57227 397.8418 L 360.42188 398.95117 L 359.21289 400.07422 L 359.21289 400.07031 L 360.42188 398.95117 L 360.43164 398.94141 L 362.58203 397.83203 L 364.5 397.46094 z M 414.5625 398.25195 L 414.58398 398.27344 L 413.2832 398.56055 L 412.43164 399.20117 L 410.77344 398.42188 L 408.39258 398.53125 L 408.08203 399.14062 L 408.07227 399.12109 L 408.38281 398.51172 L 410.76172 398.40039 L 412.41211 399.18164 L 413.26172 398.54102 L 414.5625 398.25195 z M 384.21289 398.5918 L 385.89258 399.38086 L 385.76953 400.17773 L 385.88281 399.38086 L 384.21289 398.5918 z M 402.43164 399.37109 L 403.94336 400.82031 L 405.05273 401.25195 L 407.83203 400.57031 L 408.27344 399.58203 L 408.2832 399.60156 L 407.8418 400.5918 L 405.0625 401.28125 L 403.94336 400.85156 L 402.44336 399.39062 L 401.43164 400.64062 L 393.25195 401.31055 L 392.80273 401.79102 L 392.3125 402.98047 L 392.58203 405.52148 L 392.17188 405.9707 L 390.97266 405.44141 L 390.97266 405.43164 L 392.16211 405.95117 L 392.57227 405.51172 L 392.30273 402.9707 L 392.7832 401.78125 L 393.24219 401.30078 L 401.42188 400.62109 L 402.43164 399.37109 z M 385.75195 400.29492 L 386.08203 401.71094 L 387.29297 403.81055 L 387.91211 403.83203 L 388.45312 403.51172 L 389.12305 402.57031 L 389.5332 401.44141 L 389.79297 401.25195 L 390.35352 401.30078 L 390.71289 401.69141 L 390.96289 402.65039 L 390.96289 402.66211 L 390.71289 401.70117 L 390.35352 401.31055 L 389.80273 401.26172 L 389.54297 401.45117 L 389.13281 402.58203 L 388.46289 403.52148 L 387.92188 403.8418 L 387.29297 403.81055 L 386.08203 401.7207 L 385.75195 400.30078 L 385.75195 400.29492 z M 358.5293 402.93359 L 358.52344 402.94141 L 357.02344 403.7207 L 355.71289 403.76172 L 355.24219 403.99023 L 354.02344 405.01172 L 352.0332 407.69141 L 351.30273 408.33203 L 352.0332 407.68164 L 354.02344 405.00195 L 355.24219 403.9707 L 355.71289 403.75195 L 357.0332 403.71094 L 358.5293 402.93359 z M 417.75977 406.63477 L 419.63281 407.8418 L 417.77344 406.65039 L 417.75977 406.63477 z M 501.89258 411.63086 L 501.93555 411.64844 L 499.41211 414.00195 L 498.17188 414.27148 L 497.61328 414.76172 L 498.3418 415.4707 L 495.98242 421.51172 L 494.0918 425.2207 L 494.00195 425.96484 L 493.95312 425.96094 L 494.04297 425.21094 L 495.94336 421.50195 L 498.30273 415.45117 L 497.5625 414.75195 L 498.12305 414.25195 L 499.36328 413.98047 L 501.89258 411.63086 z M 509.14453 418.73047 L 511.33203 419.24023 L 514.32227 418.87109 L 514.3418 418.88281 L 511.37305 419.25195 L 509.14453 418.73047 z M 425.50195 421.35156 L 429.20312 422.67188 L 429.20703 422.67969 L 425.54297 421.37109 L 424.54297 421.42188 L 424.26172 421.78125 L 423.48242 422.0918 L 421.87305 422.14062 L 421.87305 422.11914 L 423.44336 422.07031 L 424.22266 421.76172 L 424.50195 421.40039 L 425.50195 421.35156 z M 342.75195 425.26172 L 343.10352 426.10156 L 343.10156 426.10742 L 342.75195 425.26172 z M 495.39453 426.09766 L 495.44336 426.10156 L 495.72266 426.71094 L 495.51172 427.23047 L 492.98242 428.2207 L 483.47266 432.75195 L 482.0918 432.95117 L 482.09375 432.92773 L 483.43164 432.73047 L 492.94336 428.20117 L 495.47266 427.2207 L 495.68164 426.70117 L 495.39453 426.09766 z M 479.0625 432.03125 L 481.5918 432.30078 L 481.61914 432.31055 L 479.0918 432.04102 L 478.52344 432.10156 L 476.89258 433.04102 L 475.64258 433.21094 L 472.44336 433.28125 L 472.43164 433.27148 L 475.62305 433.19141 L 476.87305 433.03125 L 478.49219 432.0918 L 479.0625 432.03125 z M 472.0625 432.95117 L 472.14844 433.02734 L 472.08203 432.9707 L 471.5625 433.04102 L 467.47266 434.83203 L 466.42188 435.60156 L 464.70312 436.37109 L 464.20312 436.10156 L 461.62305 436.27148 L 458.71289 437.61133 L 456.29297 438.35156 L 455.66016 438.80859 L 455.64258 438.80078 L 454.40234 439.53125 L 454.34961 439.53711 L 455.5918 438.81055 L 456.27344 438.32031 L 458.69336 437.58203 L 461.60352 436.24023 L 464.19336 436.07031 L 464.69336 436.35156 L 466.40234 435.58203 L 467.45312 434.81055 L 471.55273 433.03125 L 472.0625 432.95117 z M 452.18164 439.75781 L 450.26172 440.77148 L 449.0332 442.01172 L 447.24219 442.68164 L 447.21094 442.68555 L 448.98242 442.02148 L 450.21289 440.78125 L 452.14258 439.76172 L 452.18164 439.75781 z M 327.22266 441.23047 L 326.49219 442.77148 L 325.66406 443.83594 L 325.64258 443.85156 L 326.48242 442.77148 L 327.22266 441.23047 z M 442.72266 441.53125 L 442.72461 441.54102 L 441.57227 441.86133 L 441.40234 444.16211 L 441.64258 444.40039 L 441.5918 445.24023 L 440.8418 446.2207 L 439.5332 446.54102 L 439.51367 446.52539 L 440.79297 446.21094 L 441.54297 445.23047 L 441.5918 444.39062 L 441.35352 444.16211 L 441.5332 441.86133 L 442.72266 441.53125 z M 355.08008 443.01172 L 355.0918 443.01172 L 355.87305 444.01172 L 355.85352 444.00195 L 355.08008 443.01172 z M 361.12305 445.64844 L 361.13281 445.65039 L 361.76172 446.16211 L 362.47852 447.47266 L 362.45312 447.4707 L 361.74219 446.15039 L 361.12305 445.64844 z M 464.42188 445.76172 L 464.39258 445.80078 L 462.89258 446.51172 L 460.12305 446.87109 L 459.62305 446.7207 L 457.27344 447.73047 L 456.21094 448.85156 L 456.21289 448.8418 L 457.30273 447.69141 L 459.65234 446.68164 L 460.15234 446.83203 L 462.92188 446.4707 L 464.42188 445.76172 z M 438.92188 446.10156 L 438.95508 446.12695 L 435.35352 447.12109 L 435.34375 447.09375 L 438.92188 446.10156 z M 432.02539 446.56836 L 433.11328 446.81055 L 435.12305 446.57031 L 435.13281 446.5957 L 433.16211 446.83203 L 432.0332 446.58203 L 432.02539 446.56836 z M 375.21289 447.16211 L 376.3418 448.71094 L 379.93164 451.54102 L 380.82227 453.30078 L 380.8418 456.04102 L 380.45312 456.62109 L 380.2832 457.43164 L 380.66211 459.27148 L 381.96289 460.79102 L 381.88281 462.55078 L 381.52344 463.10156 L 383.01172 466.11133 L 384.22266 467.25195 L 384.89258 467.54102 L 385.39258 468.2207 L 385.33203 469.11133 L 386.25195 471.08203 L 386.57227 471.24219 L 386.24219 471.08203 L 385.32227 469.11133 L 385.37305 468.2207 L 384.87305 467.54102 L 384.20312 467.26172 L 382.99219 466.11133 L 381.50195 463.11133 L 381.86328 462.55078 L 381.94336 460.79102 L 380.64258 459.28125 L 380.26172 457.44141 L 380.42188 456.63086 L 380.8125 456.05078 L 380.80273 453.31055 L 379.91211 451.55078 L 376.32227 448.7207 L 375.19336 447.17188 L 373.94141 447.5293 L 375.21289 447.16211 z M 365.94727 447.32422 L 366.27344 447.35156 L 366.93164 447.89062 L 366.91211 447.89062 L 366.25195 447.35156 L 365.94727 447.32422 z M 464.94336 450.01172 L 462.83203 451.56055 L 463.50195 452.53125 L 463.89258 451.80078 L 464.36328 451.80078 L 464.77344 452.15039 L 467.23242 451.65039 L 466.80273 450.95117 L 464.94336 450.01172 z M 448.10352 461.04102 L 447.01172 462.89062 L 446.0625 463.54102 L 445.96289 464.32031 L 446.45312 464.70117 L 447.61328 464.52148 L 449.15234 465.17188 L 449.61328 464.85156 L 449.48242 461.94141 L 448.82227 461.29102 L 448.10352 461.04102 z M 386.8457 471.37695 L 386.85352 471.38086 L 387.10352 471.82031 L 386.85352 472.87109 L 385.57227 474.99023 L 385.90234 477.03125 L 386.2832 477.2793 L 385.89258 477.03125 L 385.57227 474.99023 L 386.8418 472.86133 L 387.0918 471.81055 L 386.8457 471.37695 z M 398.58008 478.56836 L 398.58203 478.57031 L 398.44336 478.9707 L 397.55273 479.63086 L 396.86523 482.92578 L 396.86328 482.92188 L 397.55273 479.62109 L 398.44336 478.9707 L 398.58008 478.56836 z M 398.42969 484.03906 L 398.2832 484.23047 L 398.28125 484.23047 L 398.42969 484.03906 z M 388.83203 499.85156 L 388.93359 500.20312 L 388.90234 500.20117 L 388.79883 499.86328 L 388.83203 499.85156 z M 397.67188 502.89062 L 395.12305 505.33203 L 396.99219 507.35156 L 397.71289 505.30078 L 398.57227 503.98047 L 397.92188 502.93164 L 397.67188 502.89062 z M 323.87305 504.43164 L 324.18555 504.92773 L 324.16211 504.91211 L 323.87305 504.43164 z M 341.79102 508.46094 L 341.82227 508.48047 L 341.97266 508.86719 L 341.95312 508.85156 L 341.79102 508.46094 z M 326.61328 520.19141 L 328.24219 521.17188 L 330.8125 520.81055 L 332.72266 521.96094 L 335.3125 521.55078 L 336.85352 521.73047 L 339.64258 521.57031 L 341.91211 522.50195 L 344.38281 523.89062 L 344.39062 523.91211 L 341.91211 522.51172 L 339.65234 521.5918 L 336.85352 521.75195 L 335.3125 521.57031 L 332.73242 521.98047 L 330.8125 520.83203 L 328.25195 521.20117 L 326.62305 520.21094 L 323.54297 520.24023 L 323.54688 520.2207 L 326.61328 520.19141 z M 399.46289 524.14062 L 398.0625 524.90039 L 397.90234 525.92188 L 398.30273 527.10156 L 397.54297 529.50195 L 397.29297 531.25195 L 397.44336 531.7207 L 398.5918 530.95117 L 398.39258 529.78125 L 398.98242 528.56055 L 399.80273 527.70117 L 400.3418 525.14062 L 399.68164 524.20117 L 399.46289 524.14062 z M 348.88281 525.70117 L 354.44336 529.24023 L 355.8125 530.79102 L 356.52344 530.76172 L 358.0918 531.75195 L 361.12305 535.24023 L 362.75195 537.45117 L 363.24219 538.93164 L 365.41211 541.5918 L 366.57227 542.13086 L 373.26172 543.19141 L 375.37305 542.79102 L 378.72266 543.13086 L 379.60352 545.4707 L 379.60156 545.47266 L 378.72266 543.14062 L 375.37305 542.80078 L 373.26172 543.20117 L 366.57227 542.14062 L 365.40234 541.5918 L 363.23242 538.93164 L 362.75195 537.45117 L 361.11328 535.24023 L 358.08203 531.75195 L 356.52344 530.77148 L 355.8125 530.80078 L 354.44336 529.25195 L 348.88281 525.71094 L 347.07227 526.06055 L 346.98242 526.54102 L 345.39258 526.35156 L 345.38477 526.33203 L 346.98242 526.52148 L 347.07227 526.04102 L 348.88281 525.70117 z M 375.74219 551.52148 L 375.37305 553.07031 L 374.8418 554.38086 L 375.36328 553.08203 L 375.74219 551.52148 z M 373.66211 554.58203 L 372.38281 556.27148 L 372.3418 557.68164 L 372.37305 556.27148 L 373.66211 554.58203 z M 375.62305 555.90039 L 375.62891 555.90234 L 374.14258 556.7207 L 375.62305 555.90039 z M 376.08203 556.08203 L 377.21289 556.53125 L 377.94336 557.45117 L 377.21289 556.54102 L 376.08203 556.08203 z " />
</svg>
