<?xml version="1.0" encoding="UTF-8" standalone="no"?>
<!-- Created with Inkscape (http://www.inkscape.org/) -->

<svg
   xmlns:dc="http://purl.org/dc/elements/1.1/"
   xmlns:cc="http://creativecommons.org/ns#"
   xmlns:rdf="http://www.w3.org/1999/02/22-rdf-syntax-ns#"
   xmlns:svg="http://www.w3.org/2000/svg"
   xmlns="http://www.w3.org/2000/svg"
   xmlns:sodipodi="http://sodipodi.sourceforge.net/DTD/sodipodi-0.dtd"
   xmlns:inkscape="http://www.inkscape.org/namespaces/inkscape"
   id="svg2"
   version="1.1"
   inkscape:version="0.48.4 r9939"
   width="318.89999"
   height="184.25"
   xml:space="preserve"
   sodipodi:docname="openingdesign business card_front.pdf"><metadata
     id="metadata8"><rdf:RDF><cc:Work
         rdf:about=""><dc:format>image/svg+xml</dc:format><dc:type
           rdf:resource="http://purl.org/dc/dcmitype/StillImage" /><dc:title></dc:title></cc:Work></rdf:RDF></metadata><defs
     id="defs6"><clipPath
       clipPathUnits="userSpaceOnUse"
       id="clipPath16"><path
         d="M 0,792 612,792 612,0 0,0 0,792 z"
         id="path18"
         inkscape:connector-curvature="0" /></clipPath><clipPath
       clipPathUnits="userSpaceOnUse"
       id="clipPath44"><path
         d="M 0,792 612,792 612,0 0,0 0,792 z"
         id="path46"
         inkscape:connector-curvature="0" /></clipPath><clipPath
       clipPathUnits="userSpaceOnUse"
       id="clipPath54"><path
         d="m -135,81 270,0 0,-162 -270,0 0,162 z"
         id="path56"
         inkscape:connector-curvature="0" /></clipPath><clipPath
       clipPathUnits="userSpaceOnUse"
       id="clipPath76"><path
         d="m -135,81 270,0 0,-162 -270,0 0,162 z"
         id="path78"
         inkscape:connector-curvature="0" /></clipPath><clipPath
       clipPathUnits="userSpaceOnUse"
       id="clipPath98"><path
         d="m -135,81 270,0 0,-162 -270,0 0,162 z"
         id="path100"
         inkscape:connector-curvature="0" /></clipPath><clipPath
       clipPathUnits="userSpaceOnUse"
       id="clipPath120"><path
         d="m -135,81 270,0 0,-162 -270,0 0,162 z"
         id="path122"
         inkscape:connector-curvature="0" /></clipPath><clipPath
       clipPathUnits="userSpaceOnUse"
       id="clipPath142"><path
         d="m -135,81 270,0 0,-162 -270,0 0,162 z"
         id="path144"
         inkscape:connector-curvature="0" /></clipPath><clipPath
       clipPathUnits="userSpaceOnUse"
       id="clipPath164"><path
         d="m -135,81 270,0 0,-162 -270,0 0,162 z"
         id="path166"
         inkscape:connector-curvature="0" /></clipPath><clipPath
       clipPathUnits="userSpaceOnUse"
       id="clipPath186"><path
         d="m -135,81 270,0 0,-162 -270,0 0,162 z"
         id="path188"
         inkscape:connector-curvature="0" /></clipPath><clipPath
       clipPathUnits="userSpaceOnUse"
       id="clipPath208"><path
         d="m -135,81 270,0 0,-162 -270,0 0,162 z"
         id="path210"
         inkscape:connector-curvature="0" /></clipPath><clipPath
       clipPathUnits="userSpaceOnUse"
       id="clipPath228"><path
         d="M 0,792 612,792 612,0 0,0 0,792 z"
         id="path230"
         inkscape:connector-curvature="0" /></clipPath><clipPath
       clipPathUnits="userSpaceOnUse"
       id="clipPath238"><path
         d="m -135,81 270,0 0,-162 -270,0 0,162 z"
         id="path240"
         inkscape:connector-curvature="0" /></clipPath><clipPath
       clipPathUnits="userSpaceOnUse"
       id="clipPath304"><path
         d="m -135,81 270,0 0,-162 -270,0 0,162 z"
         id="path306"
         inkscape:connector-curvature="0" /></clipPath><clipPath
       clipPathUnits="userSpaceOnUse"
       id="clipPath370"><path
         d="m -135,81 270,0 0,-162 -270,0 0,162 z"
         id="path372"
         inkscape:connector-curvature="0" /></clipPath><clipPath
       clipPathUnits="userSpaceOnUse"
       id="clipPath436"><path
         d="m -135,81 270,0 0,-162 -270,0 0,162 z"
         id="path438"
         inkscape:connector-curvature="0" /></clipPath><clipPath
       clipPathUnits="userSpaceOnUse"
       id="clipPath502"><path
         d="m -135,81 270,0 0,-162 -270,0 0,162 z"
         id="path504"
         inkscape:connector-curvature="0" /></clipPath><clipPath
       clipPathUnits="userSpaceOnUse"
       id="clipPath568"><path
         d="m -135,81 270,0 0,-162 -270,0 0,162 z"
         id="path570"
         inkscape:connector-curvature="0" /></clipPath><clipPath
       clipPathUnits="userSpaceOnUse"
       id="clipPath634"><path
         d="m -135,81 270,0 0,-162 -270,0 0,162 z"
         id="path636"
         inkscape:connector-curvature="0" /></clipPath><clipPath
       clipPathUnits="userSpaceOnUse"
       id="clipPath700"><path
         d="m -135,81 270,0 0,-162 -270,0 0,162 z"
         id="path702"
         inkscape:connector-curvature="0" /></clipPath><clipPath
       clipPathUnits="userSpaceOnUse"
       id="clipPath772"><path
         d="M 0,792 612,792 612,0 0,0 0,792 z"
         id="path774"
         inkscape:connector-curvature="0" /></clipPath><clipPath
       clipPathUnits="userSpaceOnUse"
       id="clipPath1304"><path
         d="M 0,792 612,792 612,0 0,0 0,792 z"
         id="path1306"
         inkscape:connector-curvature="0" /></clipPath><clipPath
       clipPathUnits="userSpaceOnUse"
       id="clipPath1336"><path
         d="M 0,792 612,792 612,0 0,0 0,792 z"
         id="path1338"
         inkscape:connector-curvature="0" /></clipPath><clipPath
       clipPathUnits="userSpaceOnUse"
       id="clipPath1348"><path
         d="M 0,792 612,792 612,0 0,0 0,792 z"
         id="path1350"
         inkscape:connector-curvature="0" /></clipPath><linearGradient
       x1="0"
       y1="0"
       x2="1"
       y2="0"
       gradientUnits="userSpaceOnUse"
       gradientTransform="matrix(98.164062,0,0,-98.164062,-557.29688,615.38281)"
       spreadMethod="pad"
       id="linearGradient1362"><stop
         style="stop-opacity:1;stop-color:#343842"
         offset="0"
         id="stop1364" /><stop
         style="stop-opacity:1;stop-color:#445066"
         offset="1"
         id="stop1366" /></linearGradient><clipPath
       clipPathUnits="userSpaceOnUse"
       id="clipPath1374"><path
         d="M 0,792 612,792 612,0 0,0 0,792 z"
         id="path1376"
         inkscape:connector-curvature="0" /></clipPath><linearGradient
       x1="0"
       y1="0"
       x2="1"
       y2="0"
       gradientUnits="userSpaceOnUse"
       gradientTransform="matrix(86.828323,0,0,-86.828308,-545.92041,609.87451)"
       spreadMethod="pad"
       id="linearGradient1388"><stop
         style="stop-opacity:1;stop-color:#343842"
         offset="0"
         id="stop1390" /><stop
         style="stop-opacity:1;stop-color:#445066"
         offset="1"
         id="stop1392" /></linearGradient><clipPath
       clipPathUnits="userSpaceOnUse"
       id="clipPath1400"><path
         d="M 0,792 612,792 612,0 0,0 0,792 z"
         id="path1402"
         inkscape:connector-curvature="0" /></clipPath><linearGradient
       x1="0"
       y1="0"
       x2="1"
       y2="0"
       gradientUnits="userSpaceOnUse"
       gradientTransform="matrix(98.164062,0,0,-98.164062,-581.72461,640.55957)"
       spreadMethod="pad"
       id="linearGradient1414"><stop
         style="stop-opacity:1;stop-color:#343842"
         offset="0"
         id="stop1416" /><stop
         style="stop-opacity:1;stop-color:#445066"
         offset="1"
         id="stop1418" /></linearGradient><clipPath
       clipPathUnits="userSpaceOnUse"
       id="clipPath1426"><path
         d="M 0,792 612,792 612,0 0,0 0,792 z"
         id="path1428"
         inkscape:connector-curvature="0" /></clipPath><linearGradient
       x1="0"
       y1="0"
       x2="1"
       y2="0"
       gradientUnits="userSpaceOnUse"
       gradientTransform="matrix(-28.792343,-28.792343,-28.792343,28.792343,-496.4624,663.54395)"
       spreadMethod="pad"
       id="linearGradient1440"><stop
         style="stop-opacity:1;stop-color:#343842"
         offset="0"
         id="stop1442" /><stop
         style="stop-opacity:1;stop-color:#445066"
         offset="1"
         id="stop1444" /></linearGradient><clipPath
       clipPathUnits="userSpaceOnUse"
       id="clipPath1452"><path
         d="M 0,792 612,792 612,0 0,0 0,792 z"
         id="path1454"
         inkscape:connector-curvature="0" /></clipPath><clipPath
       clipPathUnits="userSpaceOnUse"
       id="clipPath1476"><path
         d="M 0,792 612,792 612,0 0,0 0,792 z"
         id="path1478"
         inkscape:connector-curvature="0" /></clipPath></defs><sodipodi:namedview
     pagecolor="#ffffff"
     bordercolor="#666666"
     borderopacity="1"
     objecttolerance="10"
     gridtolerance="10"
     guidetolerance="10"
     inkscape:pageopacity="0"
     inkscape:pageshadow="2"
     inkscape:window-width="1920"
     inkscape:window-height="1017"
     id="namedview4"
     showgrid="true"
     inkscape:zoom="2.8074758"
     inkscape:cx="98.87653"
     inkscape:cy="57.053827"
     inkscape:window-x="-8"
     inkscape:window-y="-8"
     inkscape:window-maximized="1"
     inkscape:current-layer="layer2"
     inkscape:showpageshadow="false"
     units="in"><inkscape:grid
       type="xygrid"
       id="grid4878"
       empspacing="5"
       visible="true"
       enabled="true"
       snapvisiblegridlinesonly="true"
       units="in"
       spacingx="0.125in"
       spacingy="0.125in"
       originy="0in"
       originx="0.04in" /></sodipodi:namedview><g
     id="g10"
     inkscape:groupmode="layer"
     inkscape:label="front"
     transform="matrix(1.25,0,0,-1.25,-45,881.75)"
     style="display:inline"><g
       id="g12"><g
         id="g14"
         clip-path="url(#clipPath16)"><text
   transform="matrix(1,0,0,-1,818.7344,258.9121)"
   id="text20"><tspan
     style="font-size:28px;font-variant:normal;font-weight:normal;font-stretch:normal;writing-mode:lr-tb;fill:#a2b7c6;fill-opacity:1;fill-rule:nonzero;stroke:none;font-family:Century Gothic;-inkscape-font-specification:CenturyGothic"
     x="0 19.096001 37.296001 54.375999 59.976002 77.056"
     y="0"
     sodipodi:role="line"
     id="tspan22">pening</tspan></text>

<text
   transform="matrix(1,0,0,-1,914.6344,258.9121)"
   id="text24"><tspan
     style="font-size:28px;font-variant:normal;font-weight:bold;font-stretch:normal;writing-mode:lr-tb;fill:#5498ce;fill-opacity:1;fill-rule:nonzero;stroke:none;font-family:Century Gothic;-inkscape-font-specification:CenturyGothic-Bold"
     x="0 18.48 36.400002 48.720001 55.439999 73.919998"
     y="0"
     sodipodi:role="line"
     id="tspan26">design</tspan></text>

<g
   id="g28"
   transform="translate(731.1924,223.6787)"><path
     d="m 0,0 c -7.046,0 -12.75,5.711 -12.75,12.754 0,7.043 5.704,12.751 12.75,12.751 7.04,0 12.749,-5.708 12.749,-12.751 C 12.749,5.711 7.04,0 0,0 m 13.765,52.138 0,-24.725 C 10.162,30.796 5.329,32.884 0,32.884 c -11.12,0 -20.133,-9.014 -20.133,-20.13 0,-11.115 9.013,-20.132 20.133,-20.132 5.329,0 10.162,2.087 13.765,5.473 l 0,-4.662 7.38,0 0,58.705 -7.38,0 z"
     style="fill:#5795cf;fill-opacity:1;fill-rule:nonzero;stroke:none"
     id="path30"
     inkscape:connector-curvature="0" /></g><g
   id="g32"
   transform="translate(712.3682,263.1191)"><path
     d="M 0,0 C -2.501,0 -4.532,2.03 -4.532,4.527 -4.532,7.029 -2.501,9.06 0,9.06 2.504,9.06 4.53,7.029 4.53,4.527 4.53,2.03 2.504,0 0,0 m 0,13.532 c -4.973,0 -9.003,-4.033 -9.003,-9.005 0,-4.968 4.03,-9.002 9.003,-9.002 4.97,0 9,4.034 9,9.002 0,4.972 -4.03,9.005 -9,9.005"
     style="fill:#7eb4dd;fill-opacity:1;fill-rule:nonzero;stroke:none"
     id="path34"
     inkscape:connector-curvature="0" /></g><g
   id="g36"
   transform="translate(808.252,263.1191)"><path
     d="M 0,0 C -2.501,0 -4.532,2.03 -4.532,4.527 -4.532,7.029 -2.501,9.06 0,9.06 2.504,9.06 4.53,7.029 4.53,4.527 4.53,2.03 2.504,0 0,0 m 0,13.532 c -4.973,0 -9.003,-4.033 -9.003,-9.005 0,-4.968 4.03,-9.002 9.003,-9.002 4.97,0 9,4.034 9,9.002 0,4.972 -4.03,9.005 -9,9.005"
     style="fill:#7eb4dd;fill-opacity:1;fill-rule:nonzero;stroke:none"
     id="path38"
     inkscape:connector-curvature="0" /></g></g></g><g
       id="g430"
       transform="matrix(1,0,0,-1,845.63394,307.59121)"><g
         id="g432"><g
           id="g434"
           clip-path="url(#clipPath436)"><flowRoot
             xml:space="preserve"
             id="flowRoot4463"
             style="font-size:40px;font-style:normal;font-weight:normal;line-height:125%;letter-spacing:0px;word-spacing:0px;fill:#000000;fill-opacity:1;stroke:none;font-family:Sans"><flowRegion
               id="flowRegion4465"><rect
                 id="rect4467"
                 width="1068.5756"
                 height="592.70325"
                 x="-132.50337"
                 y="295.10989" /></flowRegion><flowPara
               id="flowPara4469" /></flowRoot></g></g></g><g
       id="g1332"><g
         id="g1334"
         clip-path="url(#clipPath1336)"><g
           id="g1340"
           transform="translate(-569.0225,613.1035)"><path
             d="m 0,0 c -0.117,-0.369 -0.504,-0.972 -1.81,-0.972 l -2.969,0 0,-2.232 c 0,-1.151 -0.927,-2.088 -2.088,-2.088 l -7.956,0 c -1.143,0 -2.088,0.937 -2.088,2.088 l 0,2.232 -2.961,0 c -1.306,0 -1.692,0.603 -1.8,0.963 -0.126,0.369 -0.162,1.089 0.9,1.845 l 7.749,5.554 c 0.612,0.436 1.399,0.654 2.187,0.654 0.787,0 1.574,-0.218 2.187,-0.654 l 7.74,-5.544 C 0.152,1.08 0.117,0.36 0,0 m 0.45,23.76 -16.749,0 c -2.934,0 -5.31,-2.376 -5.31,-5.31 l 0,-0.036 -13.78,0 c -2.933,0 -5.309,-2.376 -5.309,-5.318 l 0,-5.259 0,-12.391 c 0,-2.933 2.376,-5.31 4.041,-5.31 l 35.829,0 c 4.212,0 6.597,2.377 6.597,5.31 l 0,23.004 c 0,1.21 -0.406,2.324 -1.088,3.217 C 3.708,22.939 2.174,23.76 0.45,23.76 m -26.173,8.235 c 2.134,0 3.87,-1.737 3.87,-3.87 0,-0.801 0.64,-1.449 1.441,-1.449 l 24.822,0 c 0.792,0 1.44,0.648 1.44,1.449 0,0.792 -0.648,1.44 -1.44,1.44 l -23.535,0 c -0.666,3.034 -3.366,5.319 -6.598,5.319 l -14.201,0 c -3.726,0 -6.76,-3.032 -6.76,-6.759 l 0,-24.62 0,-12.027 c 0,-0.802 0.649,-1.45 1.45,-1.45 0.8,0 1.44,0.648 1.44,1.45 l 0,14.35 0,22.297 c 0,2.133 1.736,3.87 3.87,3.87 l 14.201,0 z"
             style="fill:#7c8dac;fill-opacity:1;fill-rule:nonzero;stroke:none"
             id="path1342"
             inkscape:connector-curvature="0" /></g></g></g><g
       id="g1344"><g
         id="g1346"
         clip-path="url(#clipPath1348)"><g
           id="g1352"><g
             id="g1354"><g
               id="g1360"><path
                 d="m -489.65,634.922 c 2.133,0 3.87,-1.737 3.87,-3.87 0,-0.801 0.639,-1.449 1.44,-1.449 l 24.822,0 c 0.792,0 1.44,0.648 1.44,1.449 0,0.792 -0.648,1.44 -1.44,1.44 l -23.535,0 c -0.666,3.033 -3.366,5.319 -6.597,5.319 l -14.202,0 c -3.726,0 -6.759,-3.033 -6.759,-6.759 l 0,-24.62 0,-12.028 c 0,-0.801 0.648,-1.449 1.449,-1.449 0.801,0 1.44,0.648 1.44,1.449 l 0,14.351 0,22.297 c 0,2.133 1.737,3.87 3.87,3.87 l 14.202,0 z"
                 style="fill:url(#linearGradient1362);stroke:none"
                 id="path1368"
                 inkscape:connector-curvature="0" /></g></g></g></g></g><g
       id="g1370"><g
         id="g1372"
         clip-path="url(#clipPath1374)"><g
           id="g1378"><g
             id="g1380"><g
               id="g1386"><path
                 d="m -463.478,626.687 -16.749,0 c -2.934,0 -5.31,-2.376 -5.31,-5.31 l 0,-0.036 -13.779,0 c -2.934,0 -5.31,-2.376 -5.31,-5.319 l 0,-5.258 0,-12.391 c 0,-2.934 2.376,-5.31 4.041,-5.31 l 35.829,0 c 4.212,0 6.597,2.376 6.597,5.31 l 0,23.004 c 0,1.21 -0.405,2.324 -1.088,3.217 -0.973,1.272 -2.507,2.093 -4.231,2.093"
                 style="fill:url(#linearGradient1388);stroke:none"
                 id="path1394"
                 inkscape:connector-curvature="0" /></g></g></g></g></g><g
       id="g1396"><g
         id="g1398"
         clip-path="url(#clipPath1400)"><g
           id="g1404"><g
             id="g1406"><g
               id="g1412"><path
                 d="m -514.078,660.099 c 2.134,0 3.87,-1.738 3.87,-3.87 0,-0.801 0.64,-1.45 1.44,-1.45 l 24.823,0 c 0.792,0 1.439,0.649 1.439,1.45 0,0.792 -0.647,1.44 -1.439,1.44 l -23.535,0 c -0.666,3.033 -3.367,5.318 -6.598,5.318 l -14.201,0 c -3.727,0 -6.76,-3.032 -6.76,-6.758 l 0,-24.621 0,-12.027 c 0,-0.802 0.648,-1.449 1.449,-1.449 0.801,0 1.441,0.647 1.441,1.449 l 0,14.351 0,22.297 c 0,2.132 1.736,3.87 3.87,3.87 l 14.201,0 z"
                 style="fill:url(#linearGradient1414);stroke:none"
                 id="path1420"
                 inkscape:connector-curvature="0" /></g></g></g></g></g><g
       id="g1422"><g
         id="g1424"
         clip-path="url(#clipPath1426)"><g
           id="g1430"><g
             id="g1432"><g
               id="g1438"><path
                 d="m -526.497,635.454 c -0.179,0.344 -0.331,1.044 0.592,1.967 l 2.1,2.1 -1.579,1.579 c -0.813,0.813 -0.82,2.131 0,2.952 l 5.626,5.626 c 0.808,0.807 2.139,0.814 2.953,0 l 1.578,-1.578 2.094,2.093 c 0.923,0.923 1.623,0.771 1.954,0.592 0.35,-0.172 0.884,-0.655 0.668,-1.94 l -1.552,-9.407 c -0.125,-0.742 -0.527,-1.453 -1.084,-2.009 -0.557,-0.557 -1.267,-0.959 -2.009,-1.084 l -9.394,-1.553 c -1.291,-0.209 -1.775,0.324 -1.947,0.662"
                 style="fill:url(#linearGradient1440);stroke:none"
                 id="path1446"
                 inkscape:connector-curvature="0" /></g></g></g></g></g><g
       id="g1448"><g
         id="g1450"
         clip-path="url(#clipPath1452)"><g
           id="g1456"
           transform="translate(668.1143,518.7114)"><path
             d="M 0,0 0,-55.876"
             style="fill:none;stroke:#7f8083;stroke-width:5.25;stroke-linecap:butt;stroke-linejoin:miter;stroke-miterlimit:4;stroke-opacity:1;stroke-dasharray:none"
             id="path1458"
             inkscape:connector-curvature="0" /></g><g
           id="g1460"
           transform="translate(690.3975,478.7637)"><path
             d="m 0,0 c -1.848,-3.823 -5.582,-6.438 -9.896,-6.438 -6.141,0 -11.116,5.309 -11.116,11.859 0,6.547 4.975,11.857 11.116,11.857 3.897,0 7.325,-2.135 9.315,-5.368"
             style="fill:none;stroke:#7f8083;stroke-width:3;stroke-linecap:butt;stroke-linejoin:miter;stroke-miterlimit:4;stroke-opacity:1;stroke-dasharray:none"
             id="path1462"
             inkscape:connector-curvature="0" /></g><g
           id="g1464"
           transform="translate(669.3887,481.7407)"><path
             d="M 0,0 12.974,0"
             style="fill:none;stroke:#7f8083;stroke-width:3;stroke-linecap:butt;stroke-linejoin:miter;stroke-miterlimit:4;stroke-opacity:1;stroke-dasharray:none"
             id="path1466"
             inkscape:connector-curvature="0" /></g><g
           id="g1468"
           transform="translate(667.8535,482.9111)"><path
             d="m 0,0 c 0,-9.344 -7.162,-16.916 -16,-16.916 -8.839,0 -16.004,7.572 -16.004,16.916 0,9.343 7.165,16.918 16.004,16.918 C -7.162,16.918 0,9.343 0,0 z"
             style="fill:none;stroke:#7f8083;stroke-width:5.25;stroke-linecap:butt;stroke-linejoin:miter;stroke-miterlimit:4;stroke-opacity:1;stroke-dasharray:none"
             id="path1470"
             inkscape:connector-curvature="0" /></g></g></g><flowRoot
       xml:space="preserve"
       id="flowRoot5429"
       style="font-size:40px;font-style:normal;font-weight:normal;line-height:125%;letter-spacing:0px;word-spacing:0px;fill:#000000;fill-opacity:1;stroke:none;font-family:Sans"
       transform="matrix(0.8,0,0,-0.8,36,720)"><flowRegion
         id="flowRegion5431"><rect
           id="rect5433"
           width="226.53801"
           height="190.91884"
           x="507.21719"
           y="25.828842" /></flowRegion><flowPara
         id="flowPara5435" /></flowRoot><flowRoot
       transform="matrix(0.8,0,0,-0.8,-330.10077,544.55416)"
       xml:space="preserve"
       id="flowRoot4635-1"
       style="font-size:40px;font-style:normal;font-weight:normal;line-height:125%;letter-spacing:0px;word-spacing:0px;fill:#5498ce;fill-opacity:1;stroke:none;display:inline;font-family:Sans"><flowRegion
         id="flowRegion4637-9"><rect
           id="rect4639-1"
           width="178.80801"
           height="40.249645"
           x="526.09534"
           y="-154.76044"
           style="fill:#5498ce;fill-opacity:1" /></flowRegion><flowPara
         id="flowPara4643-1"
         style="font-size:20px;font-style:normal;font-variant:normal;font-weight:normal;font-stretch:normal;text-align:start;line-height:100%;writing-mode:lr-tb;text-anchor:start;fill:#5498ce;fill-opacity:1;font-family:Century Gothic;-inkscape-font-specification:Century Gothic">peningdesign</flowPara><flowPara
         style="font-size:20px;font-style:normal;font-variant:normal;font-weight:normal;font-stretch:normal;text-align:start;line-height:100%;writing-mode:lr-tb;text-anchor:start;fill:#5498ce;fill-opacity:1;font-family:Century Gothic;-inkscape-font-specification:Century Gothic"
         id="flowPara4659-0" /></flowRoot><flowRoot
       transform="matrix(0.8,0,0,-0.8,-372.88167,449.09446)"
       xml:space="preserve"
       id="flowRoot4635-1-2"
       style="font-size:40px;font-style:normal;font-weight:normal;line-height:125%;letter-spacing:0px;word-spacing:0px;fill:#5498ce;fill-opacity:1;stroke:none;display:inline;font-family:Sans"><flowRegion
         id="flowRegion4637-9-9"><rect
           id="rect4639-1-0"
           width="288.58188"
           height="39.677933"
           x="526.2702"
           y="-158.63193"
           style="fill:#5498ce;fill-opacity:1" /></flowRegion><flowPara
         style="font-size:9.75px;font-style:normal;font-variant:normal;font-weight:normal;font-stretch:normal;text-align:start;line-height:100%;writing-mode:lr-tb;text-anchor:start;fill:#8ab9dc;fill-opacity:1;font-family:Century Gothic;-inkscape-font-specification:Century Gothic"
         id="flowPara4659-0-6">An (uberly) transparent and open source architectural studio</flowPara></flowRoot></g><g
     inkscape:groupmode="layer"
     id="layer1"
     inkscape:label="back"
     style="display:none"
     transform="translate(0,-18.25)"><flowRoot
       transform="translate(-496.77831,210.07025)"
       xml:space="preserve"
       id="flowRoot4635"
       style="font-size:40px;font-style:normal;font-weight:normal;line-height:125%;letter-spacing:0px;word-spacing:0px;fill:#5498ce;fill-opacity:1;stroke:none;display:inline;font-family:Sans"><flowRegion
         id="flowRegion4637"><rect
           id="rect4639"
           width="138.20215"
           height="187.00069"
           x="526.09534"
           y="-154.76044"
           style="fill:#5498ce;fill-opacity:1" /></flowRegion><flowPara
         id="flowPara4641"
         style="font-size:46px;font-style:normal;font-variant:normal;font-weight:normal;font-stretch:normal;text-align:start;line-height:49.00000095%;writing-mode:lr-tb;text-anchor:start;fill:#5498ce;fill-opacity:1;font-family:Century Gothic;-inkscape-font-specification:Century Gothic"><flowSpan
           style="font-size:50.59999847px;line-height:49.00000095%"
           id="flowSpan3144">ryan</flowSpan><flowSpan
           style="font-size:35px;line-height:49.00000095%"
           id="flowSpan3142">@</flowSpan></flowPara><flowPara
         id="flowPara4643"
         style="font-size:14px;font-style:normal;font-variant:normal;font-weight:normal;font-stretch:normal;text-align:start;line-height:127.99999714%;writing-mode:lr-tb;text-anchor:start;fill:#5498ce;fill-opacity:1;font-family:Century Gothic;-inkscape-font-specification:Century Gothic">openingdesign.com</flowPara><flowPara
         style="font-size:24.25px;font-style:normal;font-variant:normal;font-weight:normal;font-stretch:normal;text-align:start;line-height:93.99999976%;writing-mode:lr-tb;text-anchor:start;fill:#5498ce;fill-opacity:1;font-family:Century Gothic;-inkscape-font-specification:Century Gothic"
         id="flowPara4651">ryan schultz</flowPara><flowPara
         style="font-size:12.75px;font-style:normal;font-variant:normal;font-weight:normal;font-stretch:normal;text-align:start;line-height:97.00000286%;writing-mode:lr-tb;text-anchor:start;fill:#5498ce;fill-opacity:1;font-family:Century Gothic;-inkscape-font-specification:Century Gothic"
         id="flowPara4653">founder and architect</flowPara><flowPara
         style="font-size:22.5px;font-style:normal;font-variant:normal;font-weight:normal;font-stretch:normal;text-align:start;line-height:93.99999976%;writing-mode:lr-tb;text-anchor:start;fill:#5498ce;fill-opacity:1;font-family:Century Gothic;-inkscape-font-specification:Century Gothic"
         id="flowPara4655">7<flowSpan
   style="line-height:98.00000191%"
   id="flowSpan4040">73.425.6456</flowSpan></flowPara><flowPara
         style="font-size:16.25px;font-style:normal;font-variant:normal;font-weight:normal;font-stretch:normal;text-align:start;line-height:83.99999738%;writing-mode:lr-tb;text-anchor:start;fill:#5498ce;fill-opacity:1;font-family:Century Gothic;-inkscape-font-specification:Century Gothic"
         id="flowPara4657"><flowSpan
           style="font-size:15px"
           id="flowSpan3138">2042 </flowSpan><flowSpan
           style="font-size:16.79999924px"
           id="flowSpan3140">barber drive</flowSpan></flowPara><flowPara
         style="font-size:13.80000019px;font-style:normal;font-variant:normal;font-weight:normal;font-stretch:normal;text-align:start;line-height:91.00000262%;writing-mode:lr-tb;text-anchor:start;fill:#5498ce;fill-opacity:1;font-family:Century Gothic;-inkscape-font-specification:Century Gothic"
         id="flowPara4659">stoughton, wisconsin</flowPara></flowRoot><g
       style="display:inline"
       transform="matrix(1.25,0,0,1.25,269.80721,100.15817)"
       id="g638"><path
         inkscape:connector-curvature="0"
         id="path640"
         style="fill:#5795cf;fill-opacity:1;fill-rule:nonzero;stroke:none"
         d="m 0,0 c -3.521,0 -6.373,-2.855 -6.373,-6.375 0,-3.521 2.852,-6.375 6.373,-6.375 3.52,0 6.373,2.854 6.373,6.375 C 6.373,-2.855 3.52,0 0,0 m 6.881,-26.063 0,12.36 c -1.8,-1.692 -4.217,-2.735 -6.881,-2.735 -5.558,0 -10.063,4.506 -10.063,10.063 0,5.555 4.505,10.063 10.063,10.063 2.664,0 5.081,-1.043 6.881,-2.737 l 0,2.332 3.689,0 0,-29.346 -3.689,0 z" /></g></g><g
     inkscape:groupmode="layer"
     id="layer2"
     inkscape:label="dot"
     style="display:none"><path
       sodipodi:type="arc"
       style="stroke-width:1.29999995;stroke-linecap:square;stroke-miterlimit:4;stroke-dasharray:1.3, 7.8;stroke-dashoffset:0;display:inline"
       id="path4087"
       sodipodi:cx="253.125"
       sodipodi:cy="54.875"
       sodipodi:rx="5.625"
       sodipodi:ry="5.625"
       d="m 258.75,54.875 a 5.625,5.625 0 1 1 -11.25,0 5.625,5.625 0 1 1 11.25,0 z"
       transform="translate(3.79326,0.08905)" /></g></svg>